<svg width="80" height="80" viewBox="0 0 80 80" fill="none" xmlns="http://www.w3.org/2000/svg">
<g clip-path="url(#clip0_59_157)">
<g clip-path="url(#clip1_59_157)">
<path opacity="0.995" fill-rule="evenodd" clip-rule="evenodd" d="M0.953125 1.95312C14.9531 1.95312 28.9532 1.95312 42.9531 1.95312C41.7299 16.3624 40.4642 30.7687 39.1562 45.1719C33.5322 46.7456 27.9228 48.3393 22.3281 49.9531C22.0781 49.9531 21.8282 49.9531 21.5781 49.9531C15.9834 48.3393 10.3741 46.7456 4.75 45.1719C3.44205 30.7688 2.17642 16.3625 0.953125 1.95312Z" fill="#FF5722"/>
<path fill-rule="evenodd" clip-rule="evenodd" d="M34.7031 15.7344C34.6184 15.8008 34.5872 15.8946 34.6094 16.0156C27.9061 15.9844 21.2186 16.0157 14.5469 16.1094C14.7214 17.6677 14.8465 19.2302 14.9219 20.7969C14.9219 21.0469 14.9219 21.2968 14.9219 21.5469C21.3281 21.5469 27.7344 21.5469 34.1406 21.5469C33.6968 26.9606 33.1968 32.3667 32.6406 37.7656C29.0577 38.8037 25.4639 39.8037 21.8594 40.7656C18.3033 39.7673 14.7408 38.7985 11.1719 37.8594C10.9501 34.9814 10.7 32.1065 10.4219 29.2344C12.1722 29.2187 13.9221 29.2344 15.6719 29.2812C15.8394 30.7488 15.9956 32.2176 16.1406 33.6875C18.0492 34.2545 19.9711 34.7701 21.9062 35.2344C23.8863 34.7316 25.8551 34.2003 27.8125 33.6406C28.0136 31.3582 28.2168 29.077 28.4219 26.7969C22.3281 26.7969 16.2344 26.7969 10.1406 26.7969C9.73066 21.451 9.29313 16.1072 8.82812 10.7656C17.5781 10.7656 26.3282 10.7656 35.0781 10.7656C34.9576 12.4222 34.8326 14.0785 34.7031 15.7344Z" fill="#FAF9F9"/>
<path fill-rule="evenodd" clip-rule="evenodd" d="M34.7031 15.7344C34.7031 15.8593 34.7031 15.9844 34.7031 16.1094C27.9843 16.1094 21.2657 16.1094 14.5469 16.1094C21.2186 16.0157 27.9061 15.9844 34.6094 16.0156C34.5872 15.8946 34.6184 15.8008 34.7031 15.7344Z" fill="#FCC7B6"/>
<path fill-rule="evenodd" clip-rule="evenodd" d="M14.9219 20.7969C15.0126 20.9944 15.0439 21.2132 15.0156 21.4531C21.4065 21.4219 27.7815 21.4532 34.1406 21.5469C27.7344 21.5469 21.3281 21.5469 14.9219 21.5469C14.9219 21.2968 14.9219 21.0469 14.9219 20.7969Z" fill="#FDA083"/>
</g>
<g clip-path="url(#clip2_59_157)">
<path opacity="0.998" fill-rule="evenodd" clip-rule="evenodd" d="M36.79 29.97C50.91 29.97 65.03 29.97 79.15 29.97C77.8733 44.3903 76.5933 58.8103 75.31 73.23C69.5912 74.7646 63.8912 76.3445 58.21 77.97C58.05 77.97 57.89 77.97 57.73 77.97C52.0456 76.3555 46.3456 74.7755 40.63 73.23C39.3428 58.8107 38.0628 44.3907 36.79 29.97Z" fill="#264DE4"/>
<path fill-rule="evenodd" clip-rule="evenodd" d="M57.91 68.79C57.93 68.79 57.95 68.79 57.97 68.79C61.5795 67.7851 65.1895 66.7852 68.8 65.79C69.6054 56.9311 70.3954 48.0711 71.17 39.21C71.2281 39.0836 71.2481 38.9435 71.23 38.79C66.81 38.79 62.39 38.79 57.97 38.79C57.97 37.03 57.97 35.27 57.97 33.51C63.73 33.51 69.49 33.51 75.25 33.51C74.1469 45.8062 73.0669 58.1062 72.01 70.41C67.3398 71.7251 62.6598 73.0051 57.97 74.25C57.9895 72.4256 57.9695 70.6056 57.91 68.79Z" fill="#2965F1"/>
<path fill-rule="evenodd" clip-rule="evenodd" d="M44.71 38.85C49.1199 38.7901 53.5399 38.77 57.97 38.79C62.39 38.79 66.81 38.79 71.23 38.79C71.2481 38.9436 71.2281 39.0836 71.17 39.21C71.17 39.09 71.17 38.97 71.17 38.85C66.77 38.85 62.37 38.85 57.97 38.85C53.55 38.85 49.13 38.85 44.71 38.85Z" fill="#CDD8F5"/>
<path fill-rule="evenodd" clip-rule="evenodd" d="M44.71 38.85C49.13 38.85 53.55 38.85 57.97 38.85C57.97 40.59 57.97 42.33 57.97 44.07C53.71 44.07 49.45 44.07 45.19 44.07C45.0019 42.3413 44.842 40.6013 44.71 38.85Z" fill="#EAEAEB"/>
<path fill-rule="evenodd" clip-rule="evenodd" d="M57.97 38.85C62.37 38.85 66.77 38.85 71.17 38.85C71.17 38.97 71.17 39.09 71.17 39.21C70.3955 48.071 69.6054 56.9311 68.8 65.79C65.1896 66.7852 61.5795 67.7851 57.97 68.79C57.9505 66.9456 57.9705 65.1056 58.03 63.27C59.963 62.7341 61.9029 62.2141 63.85 61.71C64.0716 59.4121 64.2716 57.1121 64.45 54.81C62.29 54.81 60.13 54.81 57.97 54.81C57.97 53.05 57.97 51.29 57.97 49.53C60.29 49.53 62.61 49.53 64.93 49.53C65.0847 47.7095 65.2447 45.8895 65.41 44.07C62.93 44.07 60.45 44.07 57.97 44.07C57.97 42.33 57.97 40.59 57.97 38.85Z" fill="#FEFEFE"/>
<path fill-rule="evenodd" clip-rule="evenodd" d="M45.19 44.07C49.45 44.07 53.71 44.07 57.97 44.07C60.45 44.07 62.93 44.07 65.41 44.07C65.2447 45.8895 65.0847 47.7095 64.93 49.53C62.61 49.53 60.29 49.53 57.97 49.53C53.87 49.53 49.77 49.53 45.67 49.53C49.7599 49.4701 53.8599 49.45 57.97 49.47C57.97 47.69 57.97 45.91 57.97 44.13C53.6999 44.15 49.4399 44.1299 45.19 44.07Z" fill="#2E66F0"/>
<path fill-rule="evenodd" clip-rule="evenodd" d="M45.67 49.53C49.77 49.53 53.87 49.53 57.97 49.53C57.97 51.29 57.97 53.05 57.97 54.81C54.01 54.81 50.05 54.81 46.09 54.81C45.9644 53.0488 45.8244 51.2887 45.67 49.53Z" fill="#EAEAEB"/>
<path fill-rule="evenodd" clip-rule="evenodd" d="M46.09 54.81C50.05 54.81 54.01 54.81 57.97 54.81C60.13 54.81 62.29 54.81 64.45 54.81C64.2716 57.1121 64.0717 59.4121 63.85 61.71C61.903 62.2141 59.963 62.7341 58.03 63.27C58.01 63.27 57.99 63.27 57.97 63.27C57.97 60.47 57.97 57.67 57.97 54.87C53.9999 54.8899 50.0399 54.8699 46.09 54.81Z" fill="#2A65F0"/>
<path fill-rule="evenodd" clip-rule="evenodd" d="M51.67 57.51C49.8888 57.4705 48.1289 57.5105 46.39 57.63C46.3358 57.5875 46.3158 57.5275 46.33 57.45C48.1203 57.4301 49.9003 57.4501 51.67 57.51Z" fill="#9BABE7"/>
<path fill-rule="evenodd" clip-rule="evenodd" d="M51.67 57.51C51.7882 58.909 51.9281 60.309 52.09 61.71C54.0497 62.2378 56.0098 62.7578 57.97 63.27C57.99 63.27 58.01 63.27 58.03 63.27C57.9705 65.1056 57.9505 66.9456 57.97 68.79C57.95 68.79 57.93 68.79 57.91 68.79C54.2876 67.7994 50.6677 66.7994 47.05 65.79C46.8476 63.0686 46.6277 60.3487 46.39 57.63C48.1289 57.5105 49.8889 57.4705 51.67 57.51Z" fill="#EAEAEB"/>
</g>
</g>
<defs>
<clipPath id="clip0_59_157">
<rect width="80" height="80" fill="white"/>
</clipPath>
<clipPath id="clip1_59_157">
<rect width="48" height="48" fill="white" transform="translate(-2 2)"/>
</clipPath>
<clipPath id="clip2_59_157">
<rect width="48" height="48" fill="white" transform="translate(34 30)"/>
</clipPath>
</defs>
</svg>
