<svg width="80" height="80" viewBox="0 0 80 80" fill="none" xmlns="http://www.w3.org/2000/svg">
<g clip-path="url(#clip0_21_2)">
<g clip-path="url(#clip1_21_2)">
<path opacity="0.995" fill-rule="evenodd" clip-rule="evenodd" d="M1.8916 2.9541C15.5999 2.9541 29.3083 2.9541 43.0166 2.9541C41.8188 17.0632 40.5796 31.1693 39.2988 45.2725C33.7919 46.8134 28.2995 48.3739 22.8213 49.9541C22.5765 49.9541 22.3317 49.9541 22.0869 49.9541C16.6088 48.3739 11.1163 46.8134 5.60938 45.2725C4.32867 31.1694 3.08941 17.0633 1.8916 2.9541Z" fill="#FF5722"/>
<path fill-rule="evenodd" clip-rule="evenodd" d="M34.9385 16.4482C34.8555 16.5133 34.8249 16.6051 34.8467 16.7236C28.283 16.6931 21.7349 16.7237 15.2021 16.8154C15.3731 18.3413 15.4955 19.8713 15.5693 21.4053C15.5693 21.6501 15.5693 21.8948 15.5693 22.1396C21.8421 22.1396 28.1149 22.1396 34.3877 22.1396C33.9531 27.4406 33.4635 32.7341 32.9189 38.0205C29.4107 39.037 25.8917 40.0161 22.3623 40.958C18.8803 39.9805 15.392 39.0318 11.8975 38.1123C11.6803 35.2943 11.4354 32.4793 11.1631 29.667C12.8769 29.6517 14.5904 29.667 16.3037 29.7129C16.4678 31.1499 16.6207 32.5881 16.7627 34.0273C18.6315 34.5825 20.5133 35.0874 22.4082 35.542C24.347 35.0497 26.2748 34.5295 28.1914 33.9814C28.3883 31.7466 28.5872 29.5129 28.7881 27.2803C22.8213 27.2803 16.8545 27.2803 10.8877 27.2803C10.4863 22.0457 10.0579 16.8133 9.60254 11.583C18.1702 11.583 26.738 11.583 35.3057 11.583C35.1876 13.2051 35.0652 14.8268 34.9385 16.4482Z" fill="#FAF9F9"/>
<path fill-rule="evenodd" clip-rule="evenodd" d="M34.9385 16.4482C34.9385 16.5706 34.9385 16.6931 34.9385 16.8154C28.3597 16.8154 21.781 16.8154 15.2021 16.8154C21.7349 16.7237 28.283 16.6931 34.8467 16.7236C34.8249 16.6051 34.8555 16.5133 34.9385 16.4482Z" fill="#FCC7B6"/>
<path fill-rule="evenodd" clip-rule="evenodd" d="M15.5693 21.4053C15.6582 21.5987 15.6889 21.8129 15.6611 22.0479C21.9188 22.0173 28.161 22.0479 34.3877 22.1396C28.1149 22.1396 21.8421 22.1396 15.5693 22.1396C15.5693 21.8948 15.5693 21.6501 15.5693 21.4053Z" fill="#FDA083"/>
</g>
<g clip-path="url(#clip2_21_2)">
<path opacity="0.998" fill-rule="evenodd" clip-rule="evenodd" d="M36.7319 29.9706C50.5577 29.9706 64.3836 29.9706 78.2094 29.9706C76.9593 44.0905 75.7059 58.2101 74.4494 72.3294C68.8497 73.832 63.2685 75.379 57.7056 76.9706C57.5489 76.9706 57.3923 76.9706 57.2356 76.9706C51.6697 75.3898 46.0885 73.8427 40.4919 72.3294C39.2315 58.2104 37.9781 44.0909 36.7319 29.9706Z" fill="#264DE4"/>
<path fill-rule="evenodd" clip-rule="evenodd" d="M57.4119 67.9819C57.4314 67.9819 57.4511 67.9819 57.4706 67.9819C61.005 66.9979 64.5398 66.0188 68.075 65.0444C68.8637 56.37 69.6372 47.6946 70.3956 39.0181C70.4525 38.8944 70.4721 38.7572 70.4544 38.6069C66.1264 38.6069 61.7986 38.6069 57.4706 38.6069C57.4706 36.8836 57.4706 35.1602 57.4706 33.4369C63.1106 33.4369 68.7506 33.4369 74.3906 33.4369C73.3106 45.4769 72.2531 57.5206 71.2181 69.5681C66.6452 70.8558 62.0627 72.1091 57.4706 73.3281C57.4897 71.5417 57.4701 69.7597 57.4119 67.9819Z" fill="#2965F1"/>
<path fill-rule="evenodd" clip-rule="evenodd" d="M44.4869 38.6656C48.8049 38.6069 53.1328 38.5873 57.4706 38.6069C61.7986 38.6069 66.1264 38.6069 70.4544 38.6069C70.4721 38.7572 70.4525 38.8943 70.3956 39.0181C70.3956 38.9006 70.3956 38.7831 70.3956 38.6656C66.0873 38.6656 61.7789 38.6656 57.4706 38.6656C53.1427 38.6656 48.8148 38.6656 44.4869 38.6656Z" fill="#CDD8F5"/>
<path fill-rule="evenodd" clip-rule="evenodd" d="M44.4869 38.6656C48.8148 38.6656 53.1427 38.6656 57.4706 38.6656C57.4706 40.3694 57.4706 42.0731 57.4706 43.7769C53.2994 43.7769 49.1281 43.7769 44.9569 43.7769C44.7727 42.0842 44.6161 40.3805 44.4869 38.6656Z" fill="#EAEAEB"/>
<path fill-rule="evenodd" clip-rule="evenodd" d="M57.4706 38.6656C61.7789 38.6656 66.0873 38.6656 70.3956 38.6656C70.3956 38.7831 70.3956 38.9006 70.3956 39.0181C69.6372 47.6946 68.8637 56.37 68.075 65.0444C64.5398 66.0188 61.005 66.9979 57.4706 67.9819C57.4515 66.1759 57.4711 64.3742 57.5294 62.5769C59.4221 62.0522 61.3216 61.543 63.2281 61.0494C63.4452 58.7994 63.641 56.5473 63.8156 54.2931C61.7006 54.2931 59.5856 54.2931 57.4706 54.2931C57.4706 52.5698 57.4706 50.8464 57.4706 49.1231C59.7423 49.1231 62.0139 49.1231 64.2856 49.1231C64.4371 47.3406 64.5938 45.5585 64.7556 43.7769C62.3273 43.7769 59.8989 43.7769 57.4706 43.7769C57.4706 42.0731 57.4706 40.3694 57.4706 38.6656Z" fill="#FEFEFE"/>
<path fill-rule="evenodd" clip-rule="evenodd" d="M44.9568 43.7769C49.1281 43.7769 53.2993 43.7769 57.4706 43.7769C59.8989 43.7769 62.3273 43.7769 64.7556 43.7769C64.5937 45.5585 64.4371 47.3406 64.2856 49.1231C62.0139 49.1231 59.7423 49.1231 57.4706 49.1231C53.456 49.1231 49.4414 49.1231 45.4268 49.1231C49.4315 49.0644 53.4461 49.0448 57.4706 49.0644C57.4706 47.3214 57.4706 45.5786 57.4706 43.8356C53.2894 43.8552 49.1182 43.8356 44.9568 43.7769Z" fill="#2E66F0"/>
<path fill-rule="evenodd" clip-rule="evenodd" d="M45.4269 49.1231C49.4414 49.1231 53.4561 49.1231 57.4706 49.1231C57.4706 50.8465 57.4706 52.5698 57.4706 54.2931C53.5931 54.2931 49.7156 54.2931 45.8381 54.2931C45.7152 52.5686 45.5781 50.8452 45.4269 49.1231Z" fill="#EAEAEB"/>
<path fill-rule="evenodd" clip-rule="evenodd" d="M45.8381 54.2931C49.7156 54.2931 53.5931 54.2931 57.4706 54.2931C59.5856 54.2931 61.7006 54.2931 63.8156 54.2931C63.641 56.5473 63.4452 58.7994 63.2281 61.0494C61.3216 61.543 59.4221 62.0522 57.5294 62.5769C57.5098 62.5769 57.4902 62.5769 57.4706 62.5769C57.4706 59.8352 57.4706 57.0936 57.4706 54.3519C53.5832 54.3714 49.7057 54.3518 45.8381 54.2931Z" fill="#2A65F0"/>
<path fill-rule="evenodd" clip-rule="evenodd" d="M51.3019 56.9369C49.5578 56.8982 47.8345 56.9373 46.1319 57.0544C46.0788 57.0127 46.0592 56.954 46.0731 56.8781C47.8261 56.8587 49.569 56.8782 51.3019 56.9369Z" fill="#9BABE7"/>
<path fill-rule="evenodd" clip-rule="evenodd" d="M51.3019 56.9369C51.4176 58.3067 51.5546 59.6776 51.7131 61.0494C53.632 61.5662 55.5512 62.0754 57.4706 62.5769C57.4902 62.5769 57.5098 62.5769 57.5294 62.5769C57.4711 64.3742 57.4516 66.1759 57.4706 67.9819C57.4511 67.9819 57.4315 67.9819 57.4119 67.9819C53.865 67.0119 50.3204 66.0327 46.7781 65.0444C46.58 62.3797 46.3646 59.7164 46.1319 57.0544C47.8345 56.9374 49.5578 56.8982 51.3019 56.9369Z" fill="#EAEAEB"/>
</g>
</g>
<defs>
<clipPath id="clip0_21_2">
<rect width="80" height="80" fill="white"/>
</clipPath>
<clipPath id="clip1_21_2">
<rect width="47" height="47" fill="white" transform="translate(-1 3)"/>
</clipPath>
<clipPath id="clip2_21_2">
<rect width="47" height="47" fill="white" transform="translate(34 30)"/>
</clipPath>
</defs>
</svg>
