<svg width="80" height="80" viewBox="0 0 80 80" fill="none" xmlns="http://www.w3.org/2000/svg">
<g clip-path="url(#clip0_58_64)">
<path d="M12.5264 70.1437L7 3.12527L73 3.25995L67.1563 70.1437L40.2491 77.8747L12.5264 70.1437Z" fill="#E9CA32"/>
<path d="M40.2491 71.4023V9.5079L67.4284 9.59769L62.5816 64.9742L40.2491 71.4023Z" fill="#FFDE25"/>
<path d="M37.3387 16.8571H30.1532V58.0524L24.5645 56.9961V51.4506L17.9113 50.3943V62.8057L37.3387 67.8231V16.8571ZM42.7289 16.8571H62.6209L61.2903 24.7528H50.3226V37.7098H61.2903L59.9596 63.862L42.7289 67.8231V59.6368L54.3709 55.6757L55.0432 44.8487L42.7289 46.618V16.8571Z" fill="white"/>
</g>
<defs>
<clipPath id="clip0_58_64">
<rect width="66" height="75" fill="white" transform="translate(7 3)"/>
</clipPath>
</defs>
</svg>
