<svg width="500" height="452" viewBox="0 0 500 452" fill="none" xmlns="http://www.w3.org/2000/svg">
<path d="M140.101 33.61H25.5506V223.22H140.101V33.61Z" fill="#E0E0E0"/>
<path d="M136.291 33.61H21.7406V223.22H136.291V33.61Z" fill="#EBEBEB"/>
<path d="M131.411 37.45H26.6206V219.37H131.411V37.45Z" fill="white"/>
<path d="M111.011 61.09H46.5706V195.73H111.011V61.09Z" fill="#EBEBEB"/>
<path d="M46.5706 148.06C46.4206 135.48 57.7306 123.2 70.1806 121.44C76.1206 120.61 82.4306 121.79 87.9806 119.51C97.8806 115.45 101.041 102.29 110.981 98.38L111.441 195.7H46.5706V148.06Z" fill="#E0E0E0"/>
<path d="M439.661 25V129.34H289.801L284.401 25.73L439.661 25Z" fill="#E0E0E0"/>
<path d="M284.411 25.73V129.12H434.271V25.73L284.411 25.73Z" fill="white"/>
<path d="M434.971 129.83H283.691V25.06H434.971V129.83ZM285.121 128.41H433.551V26.41H285.121V128.41Z" fill="#E0E0E0"/>
<path d="M418.031 38.58H300.631V116.28H418.031V38.58Z" fill="white"/>
<path d="M418.031 38.58H417.451H415.781H409.341L385.141 38.67L300.631 38.84L300.971 38.5C300.971 62.24 300.971 88.5 300.971 116.19L300.601 115.82L418.001 115.89L417.711 116.19C417.771 92.54 417.821 73.19 417.861 59.65C417.861 52.91 417.921 47.65 417.941 44.02C417.941 42.24 417.941 40.87 417.941 39.91C417.941 38.98 417.941 38.49 417.941 38.49C417.941 38.49 417.941 38.94 417.941 39.85C417.941 40.76 417.941 42.14 417.941 43.85C417.941 47.45 417.941 52.7 418.011 59.42C418.011 72.96 418.101 92.42 418.171 116.14V116.43H417.871L300.471 116.51H300.101V116.14C300.101 88.49 300.101 62.19 300.101 38.45V38.11H300.431L385.171 38.28L409.281 38.37H415.661H417.291C417.542 38.4218 417.789 38.492 418.031 38.58Z" fill="#E0E0E0"/>
<path d="M284.401 25.44C285.328 25.8854 286.195 26.4465 286.981 27.11C288.511 28.22 290.601 29.79 292.861 31.59C295.121 33.39 297.091 35.1 298.491 36.38C299.296 37.0176 300.016 37.7572 300.631 38.58C300.501 38.74 296.891 35.76 292.391 32.17C287.891 28.58 284.271 25.61 284.401 25.44Z" fill="#E0E0E0"/>
<path d="M434.261 25.73C434.391 25.89 430.861 28.9 426.381 32.45C421.901 36 418.161 38.74 418.031 38.58C417.901 38.42 421.431 35.41 425.921 31.86C430.411 28.31 434.131 25.57 434.261 25.73Z" fill="#E0E0E0"/>
<path d="M434.141 129.14L417.431 115.59Z" fill="white"/>
<path d="M417.431 115.59C417.561 115.44 421.431 118.34 426.021 122.08C430.611 125.82 434.271 128.98 434.141 129.14C434.011 129.3 430.141 126.39 425.561 122.65C420.981 118.91 417.311 115.75 417.431 115.59Z" fill="#E0E0E0"/>
<path d="M284.401 129.12C284.281 128.96 287.771 125.99 292.211 122.48C296.651 118.97 300.341 116.26 300.471 116.42C300.601 116.58 297.101 119.55 292.671 123.06C288.241 126.57 284.531 129.28 284.401 129.12Z" fill="#E0E0E0"/>
<path d="M324.471 62.78V88.8H398.341V62.78H324.471Z" fill="#E0E0E0"/>
<path d="M212.371 371.64C212.371 367.11 215.841 363.83 220.511 363.83C221.636 363.789 222.756 363.995 223.792 364.434C224.829 364.873 225.757 365.534 226.511 366.37L224.701 368.06C224.191 367.489 223.565 367.035 222.864 366.728C222.164 366.421 221.405 366.268 220.641 366.28C219.919 366.249 219.199 366.364 218.523 366.618C217.848 366.873 217.23 367.262 216.709 367.761C216.188 368.26 215.773 368.86 215.489 369.524C215.206 370.188 215.059 370.903 215.059 371.625C215.059 372.347 215.206 373.062 215.489 373.726C215.773 374.39 216.188 374.99 216.709 375.489C217.23 375.988 217.848 376.377 218.523 376.632C219.199 376.886 219.919 377.001 220.641 376.97C221.408 376.983 222.17 376.828 222.871 376.515C223.573 376.202 224.197 375.74 224.701 375.16L226.531 376.9C225.776 377.735 224.848 378.395 223.812 378.834C222.775 379.273 221.655 379.48 220.531 379.44C215.811 379.46 212.371 376.18 212.371 371.64Z" fill="#EBEBEB"/>
<path d="M196.941 383.55H178.101V364.71H196.941V383.55ZM179.101 382.55H195.941V365.71H179.101V382.55Z" fill="#EBEBEB"/>
<path d="M174.511 387.47C173.951 387.05 178.451 380.29 185.381 373.12C192.311 365.95 198.891 361.19 199.381 361.73C199.871 362.27 194.111 367.85 187.301 374.93C180.491 382.01 175.091 387.93 174.511 387.47Z" fill="#E0E0E0"/>
<path d="M199.641 387.06C199.031 387.5 193.891 381.25 187.101 374C180.311 366.75 174.431 361.19 174.901 360.61C175.371 360.03 182.091 364.81 189.001 372.22C195.911 379.63 200.211 386.7 199.641 387.06Z" fill="#E0E0E0"/>
<path d="M70.8106 310.19L61.5606 309.53L59.4306 313.69L55.8806 313.44L65.5306 295.51L68.9106 295.75L75.9106 314.86L72.3106 314.61L70.8106 310.19ZM69.8706 307.41L66.9606 299.06L62.9606 306.91L69.8706 307.41Z" fill="#EBEBEB"/>
<path d="M40.6006 314.45L17.8606 312.84L19.4806 290.06L42.2106 291.68L40.6006 314.45ZM18.9306 311.91L39.6706 313.39L41.1406 292.64L20.4006 291.17L18.9306 311.91Z" fill="#EBEBEB"/>
<path d="M13.0306 317.4C12.5106 316.95 18.6606 309.2 27.7106 301.08C36.7606 292.96 45.1006 287.63 45.5006 288.19C45.9006 288.75 38.3706 294.97 29.5006 303.01C20.6306 311.05 13.5806 317.9 13.0306 317.4Z" fill="#E0E0E0"/>
<path d="M43.6806 319.12C43.0406 319.52 37.4206 311.37 29.7506 301.94C22.0806 292.51 15.3106 285.3 15.8106 284.75C16.3106 284.2 23.9906 290.69 31.8106 300.3C39.6306 309.91 44.2706 318.77 43.6806 319.12Z" fill="#E0E0E0"/>
<path d="M454.461 211.27C455.331 214.33 453.461 216.8 448.841 218.1L439.961 220.61L434.961 202.75L443.331 200.38C447.611 199.17 450.421 200.38 451.221 203.16C451.477 203.957 451.502 204.81 451.293 205.621C451.084 206.431 450.65 207.166 450.041 207.74C451.067 207.745 452.062 208.096 452.864 208.737C453.666 209.377 454.229 210.27 454.461 211.27ZM438.961 204.41L440.361 209.34L445.051 208.01C447.351 207.36 448.421 206.17 447.961 204.54C447.501 202.91 445.961 202.43 443.661 203.08L438.961 204.41ZM451.031 211.88C450.521 210.1 448.941 209.69 446.441 210.4L441.091 211.92L442.541 217.07L447.901 215.55C450.401 214.84 451.531 213.67 451.031 211.88Z" fill="#EBEBEB"/>
<path d="M401.471 233.69L395.261 211.76L417.191 205.55L423.401 227.48L401.471 233.69ZM396.471 212.45L402.131 232.45L422.131 226.78L416.461 206.78L396.471 212.45Z" fill="#EBEBEB"/>
<path d="M398.481 239.63C397.831 239.37 400.981 230 406.731 219.28C412.481 208.56 418.521 200.72 419.081 201.12C419.641 201.52 414.681 209.91 409.081 220.51C403.481 231.11 399.161 239.91 398.481 239.63Z" fill="#E0E0E0"/>
<path d="M427.891 230.82C427.421 231.41 419.371 225.66 408.951 219.4C398.531 213.14 389.711 208.65 390.011 207.96C390.311 207.27 399.731 210.77 410.291 217.17C420.851 223.57 428.331 230.29 427.891 230.82Z" fill="#E0E0E0"/>
<path d="M467.25 431C467.25 431.14 369.1 431.26 248.07 431.26C127.04 431.26 28.86 431.09 28.86 431C28.86 430.91 126.99 430.74 248.07 430.74C369.15 430.74 467.25 430.8 467.25 431Z" fill="black"/>
<path d="M279.061 39.69H22.2506V300.21H279.061V39.69Z" fill="white"/>
<path d="M279.061 300.21C279.061 300.21 279.061 300.09 279.061 299.89C279.061 299.69 279.061 299.37 279.061 298.97C279.061 298.16 279.061 296.97 279.061 295.37C279.061 292.19 279.061 287.5 279.011 281.37C279.011 269.13 278.941 251.19 278.891 228.37C278.841 182.8 278.761 117.72 278.661 39.69L279.111 40.14L22.3306 40.21L22.8506 39.69C22.8506 135.16 22.8506 224.59 22.7806 300.2L22.3306 299.76L208.391 299.98L260.601 300.1L274.381 300.15H277.931H278.831H279.141H277.981H274.481L260.781 300.2L208.681 300.32L22.3306 300.54H21.8806V300.09C21.8806 224.48 21.8806 135.09 21.8106 39.58V39.06H22.3606L279.141 39.13H279.601V39.58C279.501 117.73 279.421 182.9 279.371 228.58C279.311 251.36 279.271 269.26 279.251 281.48C279.251 287.56 279.251 292.23 279.191 295.39C279.191 296.95 279.191 298.14 279.191 298.94V299.83C279.162 299.961 279.119 300.089 279.061 300.21Z" fill="#263238"/>
<path d="M42.4106 82.18V89.09H41.1206V83.26H39.6606V82.18H42.4106Z" fill="black"/>
<path d="M43.7406 88.34C43.7406 88.2336 43.7616 88.1283 43.8023 88.03C43.843 87.9317 43.9027 87.8425 43.9779 87.7672C44.0531 87.692 44.1424 87.6324 44.2407 87.5917C44.3389 87.551 44.4443 87.53 44.5506 87.53C44.657 87.53 44.7623 87.551 44.8606 87.5917C44.9589 87.6324 45.0482 87.692 45.1234 87.7672C45.1986 87.8425 45.2583 87.9317 45.299 88.03C45.3397 88.1283 45.3606 88.2336 45.3606 88.34C45.3606 88.4464 45.3397 88.5517 45.299 88.65C45.2583 88.7482 45.1986 88.8375 45.1234 88.9128C45.0482 88.988 44.9589 89.0476 44.8606 89.0883C44.7623 89.129 44.657 89.15 44.5506 89.15C44.4443 89.15 44.3389 89.129 44.2407 89.0883C44.1424 89.0476 44.0531 88.988 43.9779 88.9128C43.9027 88.8375 43.843 88.7482 43.8023 88.65C43.7616 88.5517 43.7406 88.4464 43.7406 88.34Z" fill="black"/>
<path d="M128.521 54.25C128.487 53.5079 128.676 52.7727 129.063 52.139C129.451 51.5053 130.019 51.0022 130.695 50.6944C131.371 50.3866 132.124 50.2882 132.857 50.412C133.589 50.5357 134.268 50.8759 134.805 51.3888C135.342 51.9016 135.714 52.5636 135.872 53.2894C136.03 54.0153 135.967 54.7718 135.691 55.4615C135.415 56.1512 134.939 56.7425 134.324 57.1593C133.709 57.5761 132.983 57.7992 132.241 57.8C131.76 57.8245 131.279 57.7507 130.828 57.5831C130.377 57.4156 129.965 57.1578 129.617 56.8256C129.268 56.4933 128.992 56.0935 128.803 55.6507C128.615 55.2079 128.519 54.7312 128.521 54.25ZM134.671 54.25C134.671 53.7694 134.528 53.2996 134.261 52.8999C133.994 52.5003 133.615 52.1889 133.171 52.005C132.727 51.821 132.238 51.7729 131.767 51.8667C131.295 51.9604 130.862 52.1919 130.522 52.5317C130.182 52.8716 129.951 53.3045 129.857 53.7759C129.764 54.2473 129.812 54.7359 129.996 55.1799C130.18 55.6239 130.491 56.0034 130.891 56.2705C131.29 56.5375 131.76 56.68 132.241 56.68C132.562 56.6883 132.881 56.631 133.179 56.5117C133.477 56.3924 133.747 56.2136 133.974 55.9861C134.2 55.7586 134.378 55.4874 134.496 55.1888C134.614 54.8903 134.67 54.5709 134.661 54.25H134.671Z" fill="black"/>
<path d="M143.461 50.8V57.71H142.411L138.601 53.03V57.71H137.321V50.8H138.381L142.191 55.46V50.8H143.461Z" fill="black"/>
<path d="M145.321 50.8H146.601V56.62H150.221V57.71H145.321V50.8Z" fill="black"/>
<path d="M151.231 50.8H152.511V57.71H151.231V50.8Z" fill="black"/>
<path d="M160.521 50.8V57.71H159.461L155.661 53.03V57.71H154.391V50.8H155.451L159.251 55.46V50.8H160.521Z" fill="black"/>
<path d="M167.561 56.63V57.71H162.371V50.8H167.371V51.87H163.661V53.67H167.001V54.72H163.661V56.63H167.561Z" fill="black"/>
<path d="M173.111 51.88H170.821V50.8H176.661V51.88H174.371V57.71H173.081L173.111 51.88Z" fill="black"/>
<path d="M182.841 56.63V57.71H177.661V50.8H182.661V51.87H178.901V53.67H182.231V54.72H178.901V56.63H182.841Z" fill="black"/>
<path d="M183.661 56.98L184.111 55.98C184.77 56.4701 185.569 56.7364 186.391 56.74C187.471 56.74 187.921 56.35 187.921 55.84C187.921 54.35 183.811 55.33 183.811 52.76C183.811 51.64 184.701 50.7 186.601 50.7C187.409 50.6851 188.206 50.8963 188.901 51.31L188.491 52.31C187.917 51.9617 187.261 51.7719 186.591 51.76C185.521 51.76 185.091 52.18 185.091 52.7C185.091 54.17 189.181 53.21 189.181 55.75C189.181 56.86 188.281 57.75 186.391 57.75C185.421 57.7943 184.464 57.5242 183.661 56.98Z" fill="black"/>
<path d="M191.781 51.88H189.491V50.8H195.351V51.88H193.061V57.71H191.781V51.88Z" fill="black"/>
<path d="M74.4106 112.54H70.9506L70.2706 114.14H68.9506L72.0606 107.23H73.3206L76.4406 114.14H75.1006L74.4106 112.54ZM73.9806 111.54L72.6806 108.54L71.3906 111.54H73.9806Z" fill="black"/>
<path d="M39.5806 57.7C41.1325 57.7 42.3906 56.4419 42.3906 54.89C42.3906 53.3381 41.1325 52.08 39.5806 52.08C38.0287 52.08 36.7706 53.3381 36.7706 54.89C36.7706 56.4419 38.0287 57.7 39.5806 57.7Z" fill="black"/>
<path d="M48.0906 57.7C49.6426 57.7 50.9006 56.4419 50.9006 54.89C50.9006 53.3381 49.6426 52.08 48.0906 52.08C46.5387 52.08 45.2806 53.3381 45.2806 54.89C45.2806 56.4419 46.5387 57.7 48.0906 57.7Z" fill="black"/>
<path d="M56.6007 57.7C58.1526 57.7 59.4107 56.4419 59.4107 54.89C59.4107 53.3381 58.1526 52.08 56.6007 52.08C55.0487 52.08 53.7906 53.3381 53.7906 54.89C53.7906 56.4419 55.0487 57.7 56.6007 57.7Z" fill="black"/>
<path d="M279.061 68.79C279.061 68.93 221.861 69.05 151.311 69.05C80.7606 69.05 23.5506 68.93 23.5506 68.79C23.5506 68.65 80.7406 68.53 151.311 68.53C221.881 68.53 279.061 68.65 279.061 68.79Z" fill="black"/>
<path d="M250.981 88.11C250.981 88.25 206.451 88.37 151.531 88.37C96.6106 88.37 52.0606 88.25 52.0606 88.11C52.0606 87.97 96.5906 87.85 151.531 87.85C206.471 87.85 250.981 87.96 250.981 88.11Z" fill="black"/>
<path d="M128.821 94.87C128.821 95.01 111.821 95.13 90.8206 95.13C69.8206 95.13 52.7606 95.01 52.7606 94.87C52.7606 94.73 69.7606 94.61 90.8206 94.61C111.881 94.61 128.821 94.72 128.821 94.87Z" fill="black"/>
<path d="M63.6606 115.23H54.5506V106.12H63.6606V115.23ZM55.5506 114.23H62.6606V107.12H55.5506V114.23Z" fill="black"/>
<path d="M76.0206 129.56C76.0206 130.74 75.0906 131.43 73.3106 131.43H69.8806V124.52H73.1106C74.7706 124.52 75.6606 125.22 75.6606 126.32C75.671 126.632 75.5929 126.94 75.4354 127.209C75.2779 127.478 75.0474 127.697 74.7706 127.84C75.1425 127.943 75.4685 128.17 75.6954 128.482C75.9224 128.794 76.037 129.174 76.0206 129.56ZM71.1606 125.56V127.46H72.9806C73.8606 127.46 74.3706 127.15 74.3706 126.52C74.3706 125.89 73.8606 125.52 72.9806 125.52L71.1606 125.56ZM74.7206 129.46C74.7206 128.77 74.2006 128.46 73.2306 128.46H71.1606V130.46H73.2306C74.2006 130.46 74.7206 130.12 74.7206 129.46Z" fill="black"/>
<path d="M63.6606 132.53H54.5506V123.46H63.6606V132.53ZM55.5506 131.53H62.6606V124.46H55.5506V131.53Z" fill="black"/>
<path d="M69.3806 145.27C69.4165 144.539 69.6657 143.836 70.0975 143.245C70.5293 142.655 71.1247 142.204 71.8101 141.949C72.4954 141.693 73.2406 141.644 73.9534 141.808C74.6663 141.972 75.3154 142.341 75.8206 142.87L74.9906 143.65C74.7579 143.391 74.4725 143.184 74.1534 143.045C73.8342 142.905 73.4889 142.835 73.1406 142.84C72.4961 142.84 71.8781 143.096 71.4223 143.552C70.9666 144.007 70.7106 144.626 70.7106 145.27C70.7106 145.914 70.9666 146.533 71.4223 146.988C71.8781 147.444 72.4961 147.7 73.1406 147.7C73.4899 147.705 73.8361 147.634 74.1554 147.493C74.4748 147.351 74.7597 147.142 74.9906 146.88L75.8206 147.67C75.3154 148.199 74.6663 148.568 73.9534 148.732C73.2406 148.896 72.4954 148.847 71.8101 148.591C71.1247 148.336 70.5293 147.885 70.0975 147.295C69.6657 146.704 69.4165 146 69.3806 145.27Z" fill="black"/>
<path d="M63.6606 149.82H54.5506V140.71H63.6606V149.82ZM55.5506 148.82H62.6606V141.71H55.5506V148.82Z" fill="black"/>
<path d="M69.8806 159.11H72.8806C75.1206 159.11 76.6506 160.49 76.6506 162.56C76.6506 164.63 75.1206 166.02 72.8806 166.02H69.8806V159.11ZM72.8806 164.93C73.2041 164.951 73.5285 164.905 73.8337 164.796C74.1389 164.687 74.4184 164.516 74.655 164.294C74.8916 164.073 75.0801 163.805 75.2091 163.507C75.338 163.21 75.4045 162.889 75.4045 162.565C75.4045 162.241 75.338 161.92 75.2091 161.623C75.0801 161.325 74.8916 161.057 74.655 160.836C74.4184 160.614 74.1389 160.443 73.8337 160.334C73.5285 160.224 73.2041 160.179 72.8806 160.2H71.1606V164.93H72.8806Z" fill="black"/>
<path d="M63.6606 167.12H54.5506V158.01H63.6606V167.12ZM55.5506 166.12H62.6606V159.01H55.5506V166.12Z" fill="black"/>
<path d="M151.521 110.68C151.521 110.82 136.521 110.94 117.961 110.94C99.4006 110.94 84.3906 110.82 84.3906 110.68C84.3906 110.54 99.3906 110.42 117.961 110.42C136.531 110.42 151.521 110.53 151.521 110.68Z" fill="black"/>
<path d="M243.921 127.97C243.921 128.12 208.201 128.23 164.161 128.23C120.121 128.23 84.3906 128.12 84.3906 127.97C84.3906 127.82 120.101 127.71 164.161 127.71C208.221 127.71 243.921 127.83 243.921 127.97Z" fill="black"/>
<path d="M106.341 162.56C106.341 162.7 101.431 162.82 95.3406 162.82C89.2506 162.82 84.3406 162.7 84.3406 162.56C84.3406 162.42 89.2506 162.3 95.3406 162.3C101.431 162.3 106.341 162.46 106.341 162.56Z" fill="black"/>
<path d="M164.151 145.27C164.151 145.41 146.301 145.53 124.271 145.53C102.241 145.53 84.3906 145.41 84.3906 145.27C84.3906 145.13 102.241 145.01 124.271 145.01C146.301 145.01 164.151 145.12 164.151 145.27Z" fill="black"/>
<path d="M42.6606 187.18V188.26H37.5606V187.4L40.3106 184.8C40.9806 184.16 41.1006 183.75 41.1006 183.37C41.1006 182.73 40.6606 182.37 39.8106 182.37C39.5045 182.354 39.1989 182.411 38.9191 182.536C38.6392 182.662 38.393 182.851 38.2006 183.09L37.3006 182.4C37.6176 182.018 38.0196 181.714 38.4745 181.515C38.9293 181.315 39.4245 181.224 39.9206 181.25C41.4206 181.25 42.3906 182.01 42.3906 183.25C42.3799 183.676 42.2715 184.095 42.0739 184.472C41.8763 184.85 41.5946 185.178 41.2506 185.43L39.4006 187.19L42.6606 187.18Z" fill="black"/>
<path d="M43.4106 187.51C43.4106 187.295 43.496 187.089 43.6479 186.937C43.7998 186.785 44.0058 186.7 44.2206 186.7C44.4355 186.7 44.6415 186.785 44.7934 186.937C44.9453 187.089 45.0306 187.295 45.0306 187.51C45.0306 187.725 44.9453 187.931 44.7934 188.083C44.6415 188.235 44.4355 188.32 44.2206 188.32C44.0058 188.32 43.7998 188.235 43.6479 188.083C43.496 187.931 43.4106 187.725 43.4106 187.51Z" fill="black"/>
<path d="M71.9906 211.71H68.5406L67.8606 213.31H66.5306L69.6406 206.4H70.9106L74.0306 213.31H72.6606L71.9906 211.71ZM71.5706 210.71L70.2706 207.71L68.9706 210.71H71.5706Z" fill="black"/>
<path d="M248.561 187.28C248.561 187.42 204.031 187.54 149.111 187.54C94.1906 187.54 49.6606 187.46 49.6606 187.28C49.6606 187.1 94.1807 187.02 149.121 187.02C204.061 187.02 248.561 187.14 248.561 187.28Z" fill="black"/>
<path d="M126.411 194.04C126.411 194.18 109.411 194.3 88.3507 194.3C67.2907 194.3 50.2906 194.18 50.2906 194.04C50.2906 193.9 67.2907 193.78 88.3507 193.78C109.411 193.78 126.411 193.89 126.411 194.04Z" fill="black"/>
<path d="M61.2006 214.46H52.0906V205.35H61.2006V214.46ZM53.0906 213.46H60.2006V206.35H53.0906V213.46Z" fill="black"/>
<path d="M73.6006 228.73C73.6006 229.91 72.6706 230.6 70.9006 230.6H67.4606V223.69H70.6606C72.3206 223.69 73.2106 224.39 73.2106 225.49C73.2187 225.801 73.1396 226.108 72.9823 226.377C72.8251 226.645 72.5959 226.865 72.3206 227.01C72.6991 227.106 73.0329 227.33 73.266 227.643C73.4991 227.956 73.6172 228.34 73.6006 228.73ZM68.7506 224.73V226.64H70.5606C71.4506 226.64 71.9506 226.32 71.9506 225.69C71.9506 225.06 71.4506 224.69 70.5606 224.69L68.7506 224.73ZM72.3106 228.63C72.3106 227.94 71.7906 227.63 70.8206 227.63H68.7506V229.63H70.8206C71.7906 229.6 72.3106 229.29 72.3106 228.6V228.63Z" fill="black"/>
<path d="M61.2006 231.7H52.0906V222.59H61.2006V231.7ZM53.0906 230.7H60.2006V223.59H53.0906V230.7Z" fill="black"/>
<path d="M66.9706 244.46C66.9659 243.98 67.0595 243.503 67.2458 243.061C67.432 242.618 67.7069 242.218 68.0535 241.885C68.4001 241.553 68.8111 241.295 69.2612 241.127C69.7113 240.959 70.1909 240.885 70.6706 240.91C71.1823 240.889 71.6922 240.981 72.1641 241.18C72.636 241.379 73.0582 241.679 73.4006 242.06L72.5806 242.84C72.3471 242.582 72.0615 242.376 71.7426 242.236C71.4237 242.097 71.0788 242.026 70.7306 242.03C70.0862 242.03 69.4681 242.286 69.0124 242.742C68.5566 243.197 68.3006 243.816 68.3006 244.46C68.3006 245.104 68.5566 245.723 69.0124 246.178C69.4681 246.634 70.0862 246.89 70.7306 246.89C71.0798 246.894 71.4258 246.823 71.745 246.682C72.0643 246.54 72.3493 246.332 72.5806 246.07L73.4006 246.86C72.8968 247.39 72.2482 247.761 71.5356 247.925C70.8229 248.089 70.0777 248.041 69.3925 247.785C68.7072 247.529 68.1123 247.078 67.6817 246.487C67.2512 245.895 67.0039 245.191 66.9706 244.46Z" fill="black"/>
<path d="M61.2006 248.99H52.0906V239.88H61.2006V248.99ZM53.0906 247.99H60.2006V240.88H53.0906V247.99Z" fill="black"/>
<path d="M67.4606 258.28H70.4606C72.7006 258.28 74.2306 259.66 74.2306 261.74C74.2306 263.82 72.7006 265.19 70.4606 265.19H67.4606V258.28ZM70.4606 264.11C70.7902 264.14 71.1224 264.102 71.4361 263.996C71.7498 263.891 72.0381 263.721 72.2826 263.498C72.5271 263.275 72.7223 263.004 72.856 262.701C72.9896 262.398 73.0586 262.071 73.0586 261.74C73.0586 261.409 72.9896 261.082 72.856 260.779C72.7223 260.476 72.5271 260.205 72.2826 259.982C72.0381 259.759 71.7498 259.589 71.4361 259.484C71.1224 259.378 70.7902 259.34 70.4606 259.37H68.7906V264.11H70.4606Z" fill="black"/>
<path d="M61.2006 266.29H52.0906V257.18H61.2006V266.29ZM53.0906 265.29H60.2006V258.18H53.0906V265.29Z" fill="black"/>
<path d="M149.111 209.85C149.111 209.99 134.111 210.11 115.541 210.11C96.9706 210.11 81.9706 209.99 81.9706 209.85C81.9706 209.71 96.9706 209.59 115.541 209.59C134.111 209.59 149.111 209.71 149.111 209.85Z" fill="black"/>
<path d="M241.501 227.14C241.501 227.29 205.791 227.4 161.741 227.4C117.691 227.4 81.9706 227.29 81.9706 227.14C81.9706 226.99 117.681 226.88 161.741 226.88C205.801 226.88 241.501 227 241.501 227.14Z" fill="black"/>
<path d="M103.931 261.73C103.931 261.88 99.0107 261.99 92.9307 261.99C86.8507 261.99 81.9307 261.88 81.9307 261.73C81.9307 261.58 86.8507 261.47 92.9307 261.47C99.0107 261.47 103.931 261.59 103.931 261.73Z" fill="black"/>
<path d="M161.741 244.46C161.741 244.6 143.881 244.72 121.861 244.72C99.8406 244.72 81.9706 244.6 81.9706 244.46C81.9706 244.32 99.8306 244.2 121.861 244.2C143.891 244.2 161.741 244.29 161.741 244.46Z" fill="black"/>
<path d="M226.321 285.46H185.151C183.491 285.46 181.848 285.133 180.315 284.498C178.782 283.862 177.389 282.931 176.216 281.757C175.043 280.583 174.113 279.19 173.479 277.656C172.845 276.123 172.519 274.479 172.521 272.82C172.521 269.47 173.851 266.258 176.22 263.889C178.588 261.521 181.801 260.19 185.151 260.19H226.321C229.67 260.19 232.883 261.521 235.251 263.889C237.62 266.258 238.951 269.47 238.951 272.82C238.952 274.479 238.626 276.123 237.992 277.656C237.358 279.19 236.428 280.583 235.255 281.757C234.082 282.931 232.689 283.862 231.156 284.498C229.623 285.133 227.98 285.46 226.321 285.46Z" fill="#4682B4"/>
<path d="M195.431 269.82V276.69H194.121L190.661 272.52V276.69H189.091V269.82H190.401L193.811 273.99V269.82H195.431Z" fill="white"/>
<path d="M202.371 275.46V276.74H197.051V269.87H202.241V271.15H198.661V272.64H201.851V273.87H198.661V275.46H202.371Z" fill="white"/>
<path d="M207.891 276.69L206.231 274.31L204.601 276.69H202.781L205.321 273.2L202.911 269.82H204.711L206.291 272.05L207.841 269.82H209.561L207.161 273.14L209.731 276.69H207.891Z" fill="white"/>
<path d="M211.661 271.12H209.461V269.82H215.461V271.12H213.261V276.69H211.661V271.12Z" fill="white"/>
<path d="M224.151 276.17C224.067 276.169 223.985 276.147 223.912 276.107C223.839 276.067 223.776 276.01 223.731 275.94C223.658 275.83 223.632 275.695 223.659 275.566C223.685 275.437 223.761 275.323 223.871 275.25L227.061 273.12C227.111 273.088 227.153 273.044 227.181 272.991C227.209 272.939 227.223 272.88 227.221 272.82C227.221 272.76 227.205 272.7 227.175 272.648C227.145 272.595 227.102 272.551 227.051 272.52L223.891 270.65C223.779 270.581 223.699 270.471 223.668 270.344C223.636 270.217 223.656 270.082 223.723 269.969C223.79 269.857 223.898 269.775 224.025 269.741C224.152 269.707 224.287 269.725 224.401 269.79L227.561 271.65C227.758 271.769 227.922 271.935 228.038 272.134C228.154 272.333 228.218 272.558 228.224 272.789C228.23 273.019 228.178 273.247 228.073 273.452C227.967 273.656 227.812 273.831 227.621 273.96L224.431 276.08C224.348 276.137 224.251 276.168 224.151 276.17Z" fill="white"/>
<path d="M53.4206 132.37C53.1206 132.07 55.0506 129.64 57.7406 126.94C60.4306 124.24 62.8606 122.32 63.1706 122.62C63.4806 122.92 61.5406 125.36 58.8506 128.05C56.1606 130.74 53.7306 132.68 53.4206 132.37Z" fill="#4682B4"/>
<path d="M64.8307 133.32C64.5307 133.63 61.9407 131.53 59.0507 128.64C56.1607 125.75 54.0507 123.17 54.3707 122.86C54.6907 122.55 57.2707 124.65 60.1507 127.54C63.0307 130.43 65.1407 133.02 64.8307 133.32Z" fill="#4682B4"/>
<path d="M51.2306 214.9C50.9206 214.59 52.8606 212.16 55.5506 209.47C58.2406 206.78 60.6706 204.85 60.9806 205.15C61.2906 205.45 59.3506 207.88 56.6506 210.58C53.9506 213.28 51.5306 215.2 51.2306 214.9Z" fill="#4682B4"/>
<path d="M62.6606 215.85C62.3506 216.15 59.7706 214.06 56.8806 211.17C53.9906 208.28 51.8806 205.69 52.2006 205.39C52.5206 205.09 55.0906 207.18 57.9806 210.07C60.8706 212.96 62.9406 215.54 62.6606 215.85Z" fill="#4682B4"/>
<path d="M404.91 160.413C424.572 159.499 439.771 142.819 438.857 123.157C437.944 103.495 421.264 88.296 401.602 89.2094C381.939 90.1229 366.741 106.803 367.654 126.465C368.568 146.127 385.247 161.326 404.91 160.413Z" fill="white"/>
<path d="M383.43 166C383.759 165.907 384.093 165.83 384.43 165.77C385.392 165.651 386.368 165.836 387.22 166.3C387.806 166.605 388.318 167.035 388.72 167.56C389.166 168.17 389.426 168.896 389.47 169.65C389.564 170.517 389.389 171.393 388.971 172.158C388.552 172.924 387.909 173.542 387.128 173.931C386.347 174.32 385.465 174.46 384.602 174.333C383.739 174.206 382.936 173.818 382.3 173.22C381.727 172.731 381.304 172.089 381.08 171.37C380.895 170.72 380.858 170.037 380.97 169.37C381.117 168.41 381.557 167.52 382.23 166.82C382.71 166.33 383.06 166.16 383.04 166.13C382.951 166.157 382.867 166.198 382.79 166.25C382.689 166.302 382.592 166.362 382.5 166.43C382.374 166.523 382.254 166.623 382.14 166.73C381.523 167.32 381.075 168.064 380.843 168.885C380.611 169.706 380.603 170.575 380.82 171.4C381.042 172.178 381.487 172.873 382.1 173.4C382.768 173.994 383.589 174.389 384.47 174.54C385.418 174.74 386.406 174.614 387.274 174.182C388.142 173.75 388.838 173.037 389.25 172.16C389.657 171.364 389.837 170.471 389.77 169.58C389.716 168.772 389.427 167.997 388.94 167.35C388.513 166.793 387.962 166.344 387.33 166.04C386.432 165.576 385.406 165.418 384.41 165.59C384.257 165.612 384.106 165.649 383.96 165.7C383.846 165.729 383.736 165.769 383.63 165.82C383.51 165.93 383.42 166 383.43 166Z" fill="#263238"/>
<path d="M373.58 145.09L373.29 144.58L372.41 143.12C372.22 142.79 372 142.43 371.76 142.04C371.52 141.65 371.34 141.17 371.1 140.67C370.86 140.17 370.61 139.67 370.34 139.07C370.193 138.78 370.069 138.479 369.97 138.17C369.86 137.85 369.74 137.53 369.62 137.17C368.409 133.926 367.697 130.517 367.51 127.06C367.233 122.481 367.837 117.891 369.29 113.54L369.92 111.72C370.17 111.11 370.46 110.52 370.73 109.91C370.86 109.61 371 109.31 371.14 109C371.267 108.687 371.421 108.386 371.6 108.1L372.6 106.31C372.77 106.01 372.94 105.71 373.12 105.41L373.74 104.55L374.99 102.81C375.42 102.24 375.93 101.71 376.41 101.15L377.14 100.32C377.26 100.19 377.38 100.04 377.51 99.91L377.92 99.53C378.993 98.4522 380.139 97.4498 381.35 96.53C381.97 96.08 382.57 95.53 383.23 95.14L385.23 93.91C385.57 93.71 385.9 93.48 386.23 93.3L387.32 92.78C388.05 92.44 388.77 92.06 389.52 91.78C391.062 91.1666 392.642 90.6522 394.25 90.24L395.47 89.93L396.09 89.78L396.72 89.69L399.25 89.31C400.11 89.22 400.97 89.2 401.84 89.15C402.27 89.15 402.71 89.08 403.15 89.15L404.46 89.21C406.233 89.2749 408.001 89.4587 409.75 89.76L412.38 90.39L413.04 90.55C413.26 90.61 413.47 90.69 413.69 90.76L414.98 91.21L416.28 91.65L417.54 92.21L418.8 92.79L419.43 93.07C419.64 93.18 419.83 93.3 420.04 93.42L422.46 94.81L424.76 96.45C430.932 101.075 435.426 107.588 437.56 115C437.8 115.91 438.03 116.83 438.26 117.73L438.68 120.5L438.78 121.19V121.88L438.85 123.26L438.92 124.64L438.86 126.01L438.8 127.38V128.06L438.71 128.73C438.58 129.63 438.46 130.52 438.34 131.41C437.985 133.153 437.514 134.87 436.93 136.55L436.51 137.79C436.37 138.21 436.16 138.59 435.99 138.99C435.62 139.78 435.3 140.58 434.9 141.34C434.5 142.1 434.05 142.83 433.63 143.57L433.31 144.12C433.19 144.3 433.06 144.47 432.94 144.64L432.21 145.64C431.244 146.987 430.192 148.27 429.06 149.48C428.49 150.07 427.88 150.6 427.3 151.16L426.41 151.98C426.12 152.25 425.78 152.48 425.47 152.72L423.59 154.16C422.95 154.61 422.26 154.99 421.59 155.4C420.308 156.199 418.971 156.908 417.59 157.52L417.09 157.76L416.57 157.96L415.57 158.33C414.87 158.57 414.2 158.86 413.51 159.06L411.43 159.59L410.43 159.85L409.43 160.01L407.43 160.32C407.099 160.378 406.765 160.411 406.43 160.42H405.43C404.77 160.42 404.11 160.51 403.43 160.52L401.5 160.44C396.918 160.215 392.423 159.108 388.26 157.18C387.8 156.97 387.34 156.78 386.9 156.57L385.66 155.85L384.46 155.17C384.26 155.05 384.06 154.95 383.88 154.83L383.35 154.45L381.35 153.01C380.72 152.53 380.18 152.01 379.63 151.55L378.85 150.87C378.599 150.662 378.362 150.438 378.14 150.2L376.79 149C376.42 148.6 376.06 148.24 375.79 147.89L375.02 146.89L374.02 145.54C373.79 145.24 373.66 145.09 373.66 145.09L374 145.56C374.23 145.88 374.57 146.33 375 146.93L375.75 147.93C376.05 148.29 376.41 148.65 376.75 149.05L377.95 150.36C378.169 150.604 378.407 150.831 378.66 151.04L379.44 151.73C379.98 152.19 380.52 152.73 381.15 153.2L383.15 154.66L383.68 155.04C383.87 155.17 384.07 155.27 384.26 155.39L385.46 156.08L386.71 156.81L388.07 157.43C392.25 159.387 396.77 160.514 401.38 160.75L403.32 160.84C403.97 160.84 404.64 160.78 405.32 160.75L406.32 160.69C406.655 160.689 406.99 160.659 407.32 160.6L409.37 160.29L410.37 160.13L411.37 159.87L413.47 159.34C414.16 159.14 414.84 158.86 415.54 158.62L416.59 158.24C416.76 158.17 416.94 158.12 417.11 158.04L417.62 157.8C419.023 157.184 420.383 156.472 421.69 155.67C422.35 155.26 423.04 154.88 423.69 154.43L425.59 152.98C425.91 152.73 426.24 152.51 426.59 152.24L427.48 151.41C428.06 150.85 428.69 150.31 429.26 149.72C430.402 148.5 431.464 147.207 432.44 145.85C432.68 145.5 432.93 145.16 433.18 144.85C433.3 144.68 433.43 144.51 433.55 144.33L433.87 143.77L435.16 141.53C435.56 140.76 435.89 139.95 436.26 139.16C436.43 138.75 436.65 138.36 436.79 137.95L437.21 136.69C437.802 134.998 438.277 133.267 438.63 131.51C438.76 130.62 438.89 129.71 439.01 128.81L439.11 128.13V127.44L439.17 126.07L439.23 124.68L439.16 123.29L439.08 121.9V121.19L438.97 120.5L438.55 117.71C438.32 116.79 438.09 115.87 437.85 114.95C435.74 107.451 431.229 100.851 425.01 96.16L422.69 94.5L420.24 93.1C420.04 92.98 419.84 92.86 419.63 92.75L418.99 92.46L417.72 91.88L416.45 91.32L415.14 90.87L413.83 90.42L413.18 90.2L412.51 90.05C411.63 89.83 410.74 89.62 409.86 89.42C408.095 89.1105 406.311 88.9233 404.52 88.86L403.2 88.8C402.76 88.8 402.32 88.8 401.88 88.8C401 88.86 400.13 88.87 399.27 88.96L396.71 89.35L396.08 89.45C395.87 89.45 395.66 89.55 395.46 89.6L394.22 89.92C392.6 90.3295 391.01 90.8473 389.46 91.47C388.7 91.79 387.97 92.18 387.23 92.52L386.14 93.05C385.78 93.23 385.45 93.46 385.14 93.67L383.14 94.91C382.48 95.35 381.87 95.86 381.25 96.32C380.029 97.2399 378.873 98.2422 377.79 99.32L377.38 99.71C377.25 99.84 377.13 99.99 377.01 100.13C376.89 100.27 376.52 100.69 376.27 100.96C375.79 101.53 375.27 102.06 374.85 102.63L373.59 104.39L372.97 105.26C372.79 105.56 372.62 105.87 372.45 106.17L371.45 107.97C371.276 108.261 371.126 108.565 371 108.88L370.58 109.8C370.31 110.41 370.02 111.01 369.78 111.62C369.54 112.23 369.36 112.85 369.15 113.46C367.699 117.839 367.108 122.457 367.41 127.06C367.609 130.534 368.341 133.958 369.58 137.21L369.94 138.21C370.039 138.519 370.163 138.82 370.31 139.11L371.09 140.71C371.34 141.2 371.54 141.66 371.77 142.07L372.43 143.14L373.34 144.59C373.46 144.92 373.58 145.09 373.58 145.09Z" fill="#263238"/>
<path d="M385.26 125.71L390.54 120.43L400.72 129.48L420.7 110.25L425.6 115.53L399.97 139.66L385.26 125.71Z" fill="#4682B4"/>
<path d="M297.652 282.341L310.321 277.661L358.801 276.227L370.058 279.289L368.58 306.71L343.133 322.938L318.462 322.442L302.946 308.306L299.495 294.299L297.652 282.341Z" fill="#FFBE9D"/>
<path d="M441.45 324.339C438.451 318.091 435.062 312.037 431.304 306.214C425.366 296.874 415.973 290.264 405.177 287.829L364.505 276.809C364.505 276.809 361.733 304.24 333.763 304.24C305.793 304.24 305.221 278.879 305.221 278.879L254.003 297.598C252.386 298.224 241.463 302.008 228.761 329.246C216.663 355.146 211.368 368.376 211.368 368.376L259.686 381.315L262.921 425.945L261.842 450.853L409.027 450.53L408.207 422.053L408.865 375.061L411.949 380.873L457.905 362.435C457.905 362.435 453.365 348.87 441.45 324.339Z" fill="#4682B4"/>
<path d="M409.598 350.703C409.814 350.703 409.673 366.478 409.296 385.92C408.919 405.361 408.444 421.136 408.218 421.125C407.991 421.114 408.132 405.361 408.509 385.909C408.886 366.457 409.382 350.692 409.598 350.703Z" fill="#263238"/>
<g opacity="0.3">
<path d="M266.209 355.297C268.495 352.784 272.043 351.943 275.375 351.264C313.243 343.49 352.299 346.778 390.663 351.577C395.429 352.17 400.681 353.172 403.549 356.968C405.63 359.75 404.293 363.438 404.498 366.899C405.501 384.68 403.182 403.625 399.656 421.082L268.97 419.055C264.495 405.512 263.406 382.534 263.33 366.931C263.298 362.823 263.449 358.316 266.209 355.297Z" fill="black"/>
</g>
<path d="M232.33 323.38L232.75 323.757L234.044 324.835C234.726 325.429 235.446 325.977 236.201 326.474L237.657 327.434L238.454 327.962L239.36 328.448C240.709 329.227 242.106 329.919 243.544 330.518C245.242 331.252 246.981 331.889 248.752 332.426C253.103 333.653 257.602 334.278 262.123 334.281C267.613 334.276 273.06 333.317 278.221 331.445C278.577 331.316 278.933 331.208 279.299 331.068L280.324 330.615L282.394 329.677C283.084 329.364 283.742 328.944 284.421 328.599C285.101 328.254 285.801 327.876 286.448 327.413C287.721 326.496 289.09 325.655 290.33 324.609C291.57 323.563 292.821 322.517 294.072 321.439C296.54 319.151 299.303 317.204 302.288 315.649C303.855 314.921 305.507 314.393 307.205 314.074C308.945 313.802 310.711 313.73 312.467 313.859C316.087 314.2 319.625 315.14 322.937 316.641C326.367 318.145 329.658 319.949 332.771 322.032C339.111 326.216 345.193 330.734 352.051 333.214C357.028 335.124 362.457 335.533 367.664 334.389C369.314 334.039 370.936 333.567 372.516 332.976C378.354 330.633 383.835 327.482 388.798 323.617C393.553 320.134 397.888 316.792 402.169 314.225C405.959 311.819 410.114 310.043 414.472 308.963C417.762 308.14 421.171 307.906 424.543 308.273C426.674 308.501 428.756 309.065 430.711 309.944C431.223 310.159 431.723 310.4 432.209 310.667L432.727 310.926C432.571 310.817 432.409 310.716 432.242 310.624C431.766 310.325 431.268 310.062 430.754 309.837C428.8 308.914 426.71 308.313 424.564 308.057C421.17 307.653 417.731 307.853 414.407 308.651C410.004 309.716 405.802 311.485 401.964 313.891C397.651 316.457 393.338 319.789 388.529 323.25C383.592 327.069 378.149 330.183 372.354 332.502C370.795 333.08 369.195 333.542 367.567 333.882C365.908 334.247 364.218 334.449 362.521 334.486C359.013 334.553 355.525 333.949 352.245 332.707C345.495 330.259 339.446 325.774 333.084 321.579C329.947 319.457 326.627 317.62 323.164 316.091C319.797 314.569 316.2 313.618 312.521 313.276C310.721 313.145 308.911 313.225 307.13 313.514C305.385 313.835 303.689 314.378 302.083 315.131C299.058 316.712 296.258 318.692 293.759 321.018C292.508 322.097 291.279 323.175 290.039 324.188C288.799 325.202 287.462 326.054 286.2 326.96C285.564 327.423 284.863 327.747 284.206 328.146C283.548 328.545 282.89 328.922 282.2 329.224L280.151 330.141L279.138 330.604C278.803 330.744 278.448 330.852 278.059 330.971C272.963 332.855 267.577 333.837 262.144 333.871C257.657 333.89 253.188 333.299 248.86 332.114C247.093 331.597 245.357 330.978 243.662 330.259C242.231 329.678 240.837 329.009 239.49 328.254L238.584 327.779L237.775 327.262L236.341 326.323C235.59 325.841 234.869 325.311 234.184 324.738L232.858 323.714L232.33 323.38Z" fill="white"/>
<path d="M255.491 354.208C255.645 354.289 255.803 354.361 255.966 354.423L257.4 355.016C259.283 355.653 261.24 356.048 263.222 356.192C266.366 356.354 269.517 356.049 272.571 355.286C276.606 354.258 280.524 352.812 284.259 350.973C288.432 349 292.832 346.509 297.759 344.277C302.687 342.045 308.186 339.964 314.257 339.899C317.352 339.855 320.432 340.332 323.368 341.311C326.436 342.344 329.405 343.647 332.243 345.204C335.176 346.746 338.087 348.439 341.149 350.013C344.231 351.671 347.486 352.987 350.854 353.938C354.245 354.834 357.761 355.158 361.259 354.898C364.647 354.631 367.991 353.965 371.222 352.914C377.269 350.855 383.032 348.044 388.378 344.546C393.542 341.311 398.298 337.99 402.923 335.176C407.154 332.498 411.644 330.254 416.326 328.48C424.953 325.331 432.716 325.31 437.687 326.496C439.61 326.938 441.481 327.577 443.272 328.405L444.642 329.116L445.116 329.343C445.116 329.343 444.965 329.235 444.663 329.062L443.316 328.297C441.533 327.423 439.66 326.747 437.73 326.28C432.738 325.019 424.931 324.976 416.165 328.113C411.441 329.879 406.911 332.123 402.643 334.809C397.996 337.613 393.23 340.912 388.076 344.137C382.75 347.613 377.013 350.413 370.996 352.472C367.816 353.477 364.531 354.11 361.205 354.359C357.764 354.609 354.306 354.285 350.972 353.399C347.65 352.46 344.439 351.162 341.397 349.528C338.367 347.964 335.445 346.293 332.501 344.73C329.63 343.165 326.628 341.851 323.53 340.805C320.536 339.819 317.398 339.342 314.246 339.392C308.057 339.522 302.472 341.624 297.565 343.856C292.659 346.088 288.238 348.633 284.087 350.628C280.381 352.458 276.497 353.903 272.496 354.941C269.473 355.722 266.352 356.056 263.233 355.933C261.264 355.803 259.317 355.441 257.432 354.855L255.987 354.315C255.664 354.251 255.491 354.208 255.491 354.208Z" fill="white"/>
<path d="M221.008 345.98C221.33 346.375 221.691 346.737 222.086 347.059C222.453 347.404 222.906 347.813 223.477 348.266C224.049 348.719 224.653 349.248 225.397 349.765C227.118 351.017 228.918 352.155 230.788 353.172C235.353 355.669 240.284 357.427 245.399 358.381C247.478 358.776 249.582 359.028 251.696 359.135C252.601 359.2 253.421 359.135 254.133 359.189C254.844 359.243 255.47 359.189 255.976 359.135C256.501 359.127 257.024 359.077 257.54 358.984C257.022 358.908 256.498 358.886 255.976 358.92C255.47 358.92 254.898 358.92 254.143 358.92C253.389 358.92 252.623 358.92 251.728 358.779C249.635 358.616 247.554 358.328 245.496 357.917C242.976 357.401 240.494 356.716 238.066 355.868C235.654 354.988 233.302 353.95 231.025 352.763C229.168 351.787 227.368 350.707 225.634 349.528C224.89 349.032 224.254 348.525 223.682 348.105C223.111 347.684 222.604 347.296 222.237 347.026C221.854 346.647 221.443 346.298 221.008 345.98Z" fill="white"/>
<path d="M382.533 224.125C382.533 224.125 385.606 228.33 385.553 235.91C385.553 239.975 382.76 248.213 375.546 248.623C377.455 260.247 370.025 268.83 357.647 268.851C345.268 268.873 331.089 247.62 319.616 242.973L286.319 234.174C283.386 233.495 282.189 229.926 282.243 226.928C282.297 223.931 283.063 220.804 282.006 217.989C280.55 214.14 276.086 212.08 274.566 208.285C272.83 203.972 275.515 199.109 278.609 195.594C281.704 192.078 285.467 188.736 286.448 184.164C287.354 179.948 285.737 175.203 287.839 171.451C290.427 166.825 297.199 166.254 300.347 161.995C301.868 159.924 302.342 157.239 303.852 155.158C306.418 151.622 311.4 150.694 315.713 151.18C320.026 151.665 324.231 153.217 328.587 153.541C334.572 153.972 340.75 152.042 346.487 153.767C352.816 155.687 356.676 161.315 360.785 166.707L366.176 173.015C367.267 174.103 368.463 175.081 369.745 175.937C372.009 177.403 374.586 178.417 376.527 180.25C377.506 181.287 378.266 182.511 378.761 183.849C379.256 185.186 379.475 186.61 379.407 188.035C379.338 189.459 378.983 190.855 378.362 192.139C377.742 193.423 376.868 194.569 375.794 195.507C378.075 196.31 380.039 197.823 381.398 199.824C382.756 201.824 383.438 204.208 383.342 206.624C383.342 206.624 383.935 212.145 380.442 214.604C380.442 214.625 385.455 218.399 382.533 224.125Z" fill="#263238"/>
<path d="M360.224 235.403C362.973 226.95 365.68 218.442 366.931 209.643C368.182 200.845 367.923 191.69 364.774 183.366C364.3 182.094 360.299 173.662 358.962 173.759C358.003 173.856 360.472 181.759 359.987 182.59C355.361 190.526 354.11 200.068 354.843 209.223C355.646 218.12 357.432 226.9 360.17 235.403" fill="#263238"/>
<path d="M336.448 301.707C350.218 301.415 360.17 278.836 360.17 278.836L361.065 201.513C361.798 179.247 349.441 160.269 327.164 160.162L325.105 160.269C315.111 160.802 305.684 165.079 298.7 172.248C291.717 179.417 287.689 188.953 287.419 198.958C286.901 218.259 286.567 239.598 287.246 249.895C288.659 271.234 310.181 273.402 310.181 273.402C310.181 273.402 310.311 278.351 310.375 284.627C310.516 298.72 330.863 302.192 336.416 301.707H336.448Z" fill="#FFBE9D"/>
<path d="M310.214 273.402C310.214 273.402 323.714 273.477 337.569 263.697C337.569 263.697 331.628 279.58 310.224 278.793L310.214 273.402Z" fill="#EB996E"/>
<path d="M298.299 217.245C298.33 218.042 298.672 218.795 299.253 219.342C299.834 219.889 300.607 220.185 301.404 220.167C301.794 220.178 302.181 220.109 302.544 219.967C302.907 219.824 303.237 219.611 303.515 219.338C303.794 219.066 304.015 218.74 304.165 218.38C304.316 218.021 304.392 217.635 304.391 217.245C304.36 216.45 304.019 215.699 303.44 215.153C302.861 214.606 302.092 214.309 301.296 214.323C300.906 214.313 300.518 214.381 300.155 214.524C299.791 214.666 299.46 214.88 299.181 215.152C298.902 215.424 298.68 215.75 298.528 216.109C298.376 216.469 298.298 216.855 298.299 217.245Z" fill="#263238"/>
<path d="M292.487 207.573C292.886 207.951 295.107 206.118 298.385 205.956C301.663 205.794 304.154 207.293 304.488 206.872C304.66 206.689 304.229 205.988 303.14 205.287C301.669 204.375 299.95 203.945 298.223 204.058C296.521 204.14 294.889 204.764 293.565 205.837C292.595 206.635 292.293 207.411 292.487 207.573Z" fill="#263238"/>
<path d="M327.628 216.469C327.664 217.263 328.009 218.012 328.589 218.556C329.169 219.099 329.938 219.395 330.733 219.38C331.122 219.39 331.509 219.323 331.872 219.181C332.235 219.039 332.565 218.827 332.844 218.555C333.124 218.284 333.346 217.96 333.498 217.602C333.65 217.243 333.729 216.858 333.731 216.469C333.694 215.674 333.35 214.924 332.77 214.379C332.19 213.833 331.421 213.535 330.625 213.547C330.236 213.538 329.848 213.607 329.485 213.75C329.123 213.893 328.792 214.107 328.513 214.379C328.234 214.651 328.012 214.976 327.86 215.335C327.708 215.694 327.629 216.079 327.628 216.469Z" fill="#263238"/>
<path d="M324.684 207.174C325.083 207.552 327.304 205.719 330.582 205.557C333.86 205.395 336.362 206.905 336.696 206.484C336.858 206.29 336.437 205.6 335.348 204.888C333.874 203.984 332.157 203.555 330.431 203.659C328.724 203.742 327.087 204.369 325.762 205.449C324.759 206.268 324.49 207.013 324.684 207.174Z" fill="#263238"/>
<path d="M314.268 233.01C314.268 232.826 312.219 232.589 308.876 232.341C308.025 232.341 307.227 232.169 307.054 231.608C306.941 230.746 307.092 229.87 307.485 229.096L309.642 222.626C312.596 213.364 314.678 205.762 314.311 205.643C313.944 205.525 311.238 212.943 308.283 222.216C307.572 224.502 306.892 226.669 306.256 228.761C305.781 229.799 305.689 230.972 305.997 232.072C306.133 232.361 306.334 232.615 306.585 232.814C306.836 233.012 307.129 233.149 307.442 233.215C307.913 233.317 308.395 233.36 308.876 233.344C312.208 233.301 314.268 233.204 314.268 233.01Z" fill="#263238"/>
<path d="M324.048 234.767C323.509 234.767 323.692 238.326 320.813 241.01C317.934 243.695 314.095 243.512 314.095 244.019C314.095 244.245 314.98 244.666 316.575 244.623C318.665 244.54 320.658 243.723 322.204 242.315C323.684 240.961 324.584 239.087 324.716 237.086C324.759 235.598 324.285 234.735 324.048 234.767Z" fill="#263238"/>
<path d="M324.156 193.858C324.522 194.731 327.779 194.138 331.65 194.397C335.521 194.655 338.691 195.475 339.198 194.709C339.402 194.31 338.809 193.502 337.515 192.704C335.784 191.737 333.855 191.177 331.875 191.065C329.895 190.953 327.915 191.292 326.086 192.057C324.662 192.704 323.994 193.448 324.156 193.858Z" fill="#263238"/>
<path d="M293.252 196.596C293.878 197.308 296.088 196.413 298.805 196.241C301.523 196.068 303.852 196.467 304.337 195.658C304.553 195.27 304.154 194.58 303.108 193.89C301.712 193.116 300.119 192.775 298.529 192.909C296.939 193.044 295.425 193.648 294.18 194.645C293.252 195.464 292.983 196.251 293.252 196.596Z" fill="#263238"/>
<path d="M360.202 217.418C360.558 217.245 374.64 212.296 374.953 226.917C375.266 241.539 360.537 238.832 360.493 238.412C360.45 237.991 360.202 217.418 360.202 217.418Z" fill="#FFBE9D"/>
<path d="M364.839 232.772C364.904 232.719 365.098 232.945 365.54 233.128C366.148 233.375 366.829 233.375 367.438 233.128C368.969 232.524 370.219 230.044 370.23 227.413C370.244 226.158 369.975 224.917 369.443 223.78C369.296 223.326 369.04 222.915 368.698 222.582C368.356 222.25 367.938 222.006 367.481 221.871C367.186 221.8 366.876 221.834 366.604 221.968C366.332 222.102 366.115 222.327 365.993 222.604C365.809 223.014 365.906 223.305 365.831 223.327C365.755 223.348 365.507 223.09 365.615 222.486C365.686 222.12 365.885 221.791 366.176 221.558C366.569 221.246 367.068 221.099 367.567 221.149C368.164 221.251 368.726 221.503 369.201 221.879C369.676 222.256 370.049 222.747 370.284 223.305C370.934 224.557 371.267 225.949 371.255 227.36C371.255 230.314 369.777 233.096 367.675 233.754C367.285 233.876 366.872 233.91 366.467 233.852C366.062 233.794 365.675 233.646 365.335 233.419C364.871 233.118 364.796 232.794 364.839 232.772Z" fill="#EB996E"/>
<path d="M296.595 174.621C294.212 173.349 301.221 165.585 307 162.879C315.734 158.781 329.126 156.15 337.257 158.35C347.047 160.981 355.21 165.736 360.224 174.524C365.238 183.312 367.211 193.653 367.06 203.799C367.06 206.894 366.726 210.118 365.108 212.76C363.114 215.995 359.221 218.097 359.448 222.561C359.515 223.367 359.419 224.179 359.168 224.947C358.916 225.716 358.512 226.426 357.981 227.036C355.35 229.915 352.04 227.284 350.498 224.632C347.209 218.938 346.767 212.113 346.4 205.557C346.142 200.888 345.894 196.133 347.144 191.636C347.834 189.189 348.956 186.87 349.495 184.39C350.034 181.91 349.937 179.107 348.417 177.112C348.052 176.68 347.648 176.283 347.209 175.926C345.149 174.17 342.658 172.996 339.994 172.524C337.329 172.052 334.586 172.3 332.049 173.241C323.854 176.249 309.847 180.789 306.17 178.039C300.843 174.082 299.539 171.483 299.539 171.483L296.595 174.621Z" fill="#263238"/>
<path d="M336.469 156.366C328.393 153.789 319.217 154.048 311.788 158.037C307.82 160.194 304.24 163.515 303.097 167.86C301.954 172.206 303.852 177.565 308.035 179.15L308.327 179.333C314.591 181.35 318.635 180.411 324.824 178.255C330.032 176.368 334.647 173.079 339.866 171.235C345.457 169.261 351.511 169.005 357.248 170.502C351.576 164.194 344.535 158.954 336.469 156.366Z" fill="#263238"/>
<path d="M364.267 170.826C364.138 170.933 362.963 169.543 360.59 167.893C359.215 166.924 357.727 166.128 356.159 165.521C354.275 164.745 352.241 164.402 350.207 164.518C346.482 164.934 342.951 166.391 340.017 168.723C337.753 170.513 336.707 172.023 336.567 171.958C336.426 171.893 336.728 171.516 337.203 170.88C337.893 169.927 338.689 169.055 339.575 168.281C342.522 165.667 346.213 164.042 350.131 163.634C352.312 163.501 354.492 163.889 356.493 164.766C358.107 165.445 359.623 166.337 361 167.418C363.351 169.187 364.354 170.772 364.267 170.826Z" fill="#455A64"/>
<path d="M319.724 155.04C318.459 155.591 317.167 156.077 315.853 156.495C309.676 158.952 304.428 163.29 300.854 168.896C300.195 170.106 299.475 171.283 298.698 172.422C298.988 171.043 299.525 169.728 300.283 168.54C303.656 162.566 309.128 158.058 315.637 155.892C316.934 155.354 318.32 155.065 319.724 155.04Z" fill="#455A64"/>
<path d="M383.202 206.829C383.202 206.829 382.663 207.066 381.66 207.347C380.253 207.713 378.789 207.808 377.347 207.627C375.181 207.346 373.086 206.666 371.168 205.622C368.958 204.543 366.694 202.991 364.181 201.567C361.843 200.139 359.251 199.176 356.547 198.731C354.297 198.383 351.996 198.8 350.013 199.917C348.666 200.657 347.573 201.784 346.875 203.152C346.691 203.516 346.55 203.899 346.454 204.295C346.4 204.576 346.379 204.716 346.4 204.727C346.422 204.737 346.562 204.155 347.069 203.249C347.814 201.987 348.902 200.963 350.207 200.295C352.127 199.278 354.329 198.922 356.472 199.281C359.105 199.744 361.628 200.695 363.912 202.085C366.392 203.497 368.678 205.018 370.931 206.118C372.913 207.163 375.076 207.822 377.304 208.058C378.809 208.217 380.33 208.056 381.768 207.584C382.141 207.455 382.502 207.292 382.846 207.099C383.083 206.926 383.213 206.851 383.202 206.829Z" fill="#455A64"/>
<path d="M382.21 213.741C380.475 214.117 378.694 214.226 376.926 214.064C375.018 213.84 373.141 213.402 371.33 212.76C369.271 212.07 367.017 211.132 364.656 210.29C362.409 209.435 360.046 208.926 357.647 208.781C355.668 208.711 353.698 209.079 351.878 209.859C350.637 210.386 349.532 211.185 348.643 212.199C348.409 212.472 348.203 212.769 348.029 213.083C347.899 213.288 347.845 213.407 347.867 213.417C347.888 213.428 348.18 213.008 348.805 212.339C349.721 211.403 350.823 210.668 352.04 210.183C353.814 209.477 355.718 209.16 357.625 209.255C359.969 209.426 362.276 209.938 364.472 210.776C366.844 211.606 369.066 212.533 371.168 213.213C373.022 213.841 374.944 214.246 376.894 214.42C378.21 214.53 379.536 214.45 380.83 214.183C381.197 214.112 381.557 214.011 381.908 213.881C382.102 213.816 382.221 213.763 382.21 213.741Z" fill="#455A64"/>
<path d="M279.364 198.009C279.414 198.496 279.593 198.961 279.882 199.357C280.495 200.369 281.328 201.231 282.319 201.88C283.311 202.527 284.434 202.947 285.607 203.109C286.087 203.216 286.586 203.19 287.052 203.034C285.496 202.751 284 202.2 282.631 201.405C281.358 200.466 280.254 199.317 279.364 198.009Z" fill="#455A64"/>
<path d="M275.256 205.266C275.356 205.982 275.614 206.667 276.011 207.271C276.89 208.792 278.121 210.078 279.601 211.024C281.079 211.977 282.767 212.554 284.518 212.706C285.239 212.816 285.976 212.764 286.675 212.555C286.675 212.458 285.855 212.555 284.583 212.318C282.926 212.05 281.342 211.448 279.925 210.549C278.514 209.646 277.306 208.46 276.377 207.066C275.644 205.999 275.353 205.233 275.256 205.266Z" fill="#455A64"/>
<path d="M215.563 369.627L195.841 409.221C193.64 413.642 192.608 418.554 192.844 423.487C193.206 430.887 196.401 437.865 201.766 442.976C207.131 448.086 214.256 450.937 221.666 450.94L278.221 447.705L280.69 421.902L237.657 411.507L254.337 379.989L215.563 369.627Z" fill="#FFBE9D"/>
<path d="M237.657 411.507C237.657 411.68 235.705 411.356 232.578 411.378C228.518 411.46 224.495 412.17 220.652 413.48C216.8 414.763 213.188 416.68 209.967 419.152C207.519 421.082 206.376 422.678 206.236 422.57C206.095 422.462 206.43 422.106 206.947 421.373C207.716 420.376 208.579 419.456 209.524 418.624C212.693 415.926 216.355 413.868 220.307 412.564C224.243 411.201 228.393 410.565 232.556 410.688C233.814 410.731 235.065 410.879 236.298 411.13C236.77 411.171 237.231 411.299 237.657 411.507Z" fill="#EB996E"/>
<path d="M457.161 362.823C457.161 362.823 467.792 392.508 481.109 425.525C481.375 426.193 481.587 426.882 481.745 427.584C483.762 436.512 476.958 451.543 467.814 451.543L391.257 450.789V425.751L435.412 416.047L418.375 378.307L457.161 362.823Z" fill="#FFBE9D"/>
<path d="M469.744 422.926C469.636 423.055 468.127 421.848 465.431 420.327C458.453 416.322 450.432 414.508 442.41 415.119C439.348 415.357 437.471 415.777 437.428 415.615C437.825 415.384 438.259 415.223 438.711 415.141C439.903 414.813 441.118 414.576 442.345 414.429C450.539 413.411 458.83 415.288 465.787 419.734C466.833 420.395 467.828 421.134 468.763 421.945C469.442 422.527 469.787 422.872 469.744 422.926Z" fill="#EB996E"/>
<path d="M269.627 420.36H280.69C280.69 420.36 305.685 411.335 310.817 412.197C315.443 412.974 332.383 424.231 335.704 426.452C336.072 426.7 336.351 427.059 336.502 427.476C336.827 428.357 336.799 429.329 336.423 430.19C336.047 431.05 335.353 431.732 334.486 432.091L334.13 432.242L334.281 432.749C334.483 433.401 334.57 434.083 334.539 434.765C334.501 435.284 334.298 435.776 333.961 436.172C333.624 436.567 333.17 436.845 332.664 436.965C332.158 437.085 331.628 437.041 331.149 436.84C330.67 436.638 330.267 436.289 330 435.844L330.636 436.976C330.902 437.436 331.026 437.965 330.992 438.496L330.938 439.521C330.907 440.081 330.707 440.619 330.364 441.063C330.021 441.508 329.552 441.838 329.019 442.011C328.513 442.177 327.97 442.193 327.455 442.057C326.941 441.921 326.476 441.639 326.118 441.246C323.962 438.884 319.325 434.151 316.187 433.633C312.786 433.218 309.359 433.045 305.933 433.116C305.233 433.116 304.549 433.329 303.972 433.725C303.394 434.122 302.95 434.684 302.698 435.337C304.563 435.466 317.546 442.238 322.107 444.664C322.817 445.019 323.43 445.541 323.894 446.185C324.358 446.829 324.659 447.576 324.77 448.362C324.943 449.797 324.22 451.306 321.374 450.638C315.271 449.214 304.283 444.168 304.283 444.168C304.283 444.168 298.622 442.54 294.945 445.138C289.78 448.772 287.397 450.109 282.987 448.643C280.29 447.745 277.704 446.544 275.278 445.063L266.543 444.19C266.543 444.19 258.327 423.53 269.627 420.36Z" fill="#FFBE9D"/>
<path d="M302.612 424.576C302.612 424.673 304.391 424.112 307.313 423.929C311.119 423.673 314.932 424.321 318.441 425.82C321.949 427.319 325.052 429.627 327.498 432.555C329.385 434.798 330.194 436.448 330.28 436.394C330.133 435.991 329.945 435.604 329.719 435.24C329.149 434.222 328.492 433.256 327.757 432.35C325.334 429.309 322.193 426.918 318.617 425.391C315.041 423.865 311.142 423.251 307.27 423.605C306.105 423.707 304.951 423.906 303.819 424.198C303.405 424.283 303 424.409 302.612 424.576Z" fill="#EB996E"/>
<path d="M305.264 418.516C306.851 418.03 308.492 417.744 310.149 417.664C314.166 417.653 318.105 418.774 321.514 420.899C324.894 423.068 327.972 425.675 330.668 428.652L333.181 431.315C333.472 431.655 333.789 431.973 334.13 432.264C333.896 431.876 333.621 431.514 333.31 431.186C332.76 430.517 331.952 429.557 330.906 428.414C328.258 425.339 325.174 422.668 321.751 420.489C318.273 418.314 314.228 417.218 310.127 417.341C308.896 417.403 307.679 417.624 306.504 417.998C306.185 418.104 305.872 418.226 305.566 418.365C305.351 418.44 305.253 418.494 305.264 418.516Z" fill="#EB996E"/>
<path d="M407.463 421.147H396.4C396.4 421.147 371.416 412.122 366.273 412.973C361.647 413.761 344.708 425.007 341.386 427.239C341.009 427.501 340.729 427.88 340.588 428.317C340.263 429.198 340.292 430.17 340.668 431.031C341.043 431.891 341.738 432.573 342.605 432.932L342.961 433.072L342.81 433.579C342.609 434.232 342.521 434.914 342.551 435.596C342.589 436.114 342.792 436.606 343.129 437.002C343.466 437.398 343.921 437.675 344.426 437.796C344.932 437.916 345.463 437.872 345.942 437.67C346.421 437.468 346.823 437.12 347.09 436.674L346.454 437.806C346.193 438.269 346.07 438.796 346.098 439.326L346.152 440.405C346.184 440.965 346.384 441.503 346.726 441.947C347.069 442.392 347.538 442.722 348.072 442.896C348.578 443.061 349.12 443.077 349.635 442.941C350.15 442.805 350.614 442.524 350.972 442.13C353.129 439.769 357.765 435.035 360.903 434.507C364.305 434.097 367.732 433.924 371.158 433.989C371.858 433.991 372.541 434.205 373.118 434.601C373.695 434.997 374.139 435.558 374.392 436.21C372.527 436.35 359.545 443.111 354.983 445.537C354.275 445.894 353.662 446.416 353.198 447.06C352.735 447.704 352.433 448.45 352.32 449.236C352.148 450.67 352.87 452.179 355.717 451.522C361.82 450.088 372.807 445.052 372.807 445.052C372.807 445.052 378.468 443.435 382.145 446.023C387.31 449.667 389.693 451.004 394.103 449.527C396.8 448.63 399.387 447.429 401.813 445.947L410.547 445.084C410.547 445.084 418.763 424.306 407.463 421.147Z" fill="#FFBE9D"/>
<path d="M374.479 425.363C374.479 425.46 372.699 424.899 369.788 424.716C365.98 424.458 362.165 425.105 358.655 426.605C355.144 428.104 352.039 430.413 349.592 433.342C347.705 435.574 346.896 437.224 346.81 437.181C346.957 436.778 347.145 436.391 347.371 436.027C347.941 435.006 348.598 434.035 349.333 433.126C351.759 430.09 354.901 427.702 358.476 426.178C362.052 424.654 365.95 424.04 369.82 424.392C370.985 424.487 372.14 424.681 373.271 424.975C373.687 425.057 374.093 425.187 374.479 425.363Z" fill="#EB996E"/>
<path d="M371.826 419.292C370.238 418.813 368.598 418.527 366.942 418.44C362.924 418.426 358.984 419.547 355.577 421.675C352.2 423.844 349.122 426.447 346.422 429.417L343.92 432.08C343.628 432.423 343.307 432.741 342.961 433.029C343.198 432.644 343.472 432.282 343.78 431.951C344.33 431.283 345.139 430.334 346.185 429.18C348.84 426.113 351.923 423.443 355.339 421.255C358.82 419.084 362.863 417.989 366.963 418.106C368.195 418.165 369.414 418.39 370.586 418.775C371.007 418.893 371.309 419.055 371.524 419.13C371.74 419.206 371.837 419.281 371.826 419.292Z" fill="#EB996E"/>
<path d="M392.497 451.651H276.237C274.648 451.653 273.12 451.04 271.972 449.94C270.825 448.841 270.147 447.341 270.08 445.753L266.587 365.767C266.546 364.932 266.675 364.097 266.966 363.314C267.258 362.53 267.706 361.814 268.283 361.209C268.86 360.604 269.553 360.122 270.322 359.794C271.091 359.465 271.918 359.296 272.754 359.297H395.677C396.509 359.296 397.332 359.464 398.096 359.789C398.861 360.114 399.553 360.591 400.129 361.19C400.705 361.79 401.154 362.499 401.449 363.276C401.744 364.053 401.879 364.882 401.845 365.713L398.61 445.699C398.557 447.289 397.891 448.796 396.752 449.906C395.612 451.015 394.087 451.641 392.497 451.651Z" fill="#E0E0E0"/>
<path d="M392.497 451.651H392.777C393.063 451.646 393.348 451.617 393.629 451.565C394.732 451.376 395.761 450.888 396.605 450.152C397.291 449.55 397.839 448.806 398.211 447.973C398.583 447.139 398.771 446.235 398.761 445.322C398.858 443.165 398.966 440.728 399.085 437.968C399.559 426.883 400.239 410.86 401.08 391.074C401.295 386.121 401.515 380.942 401.737 375.536C401.845 372.829 401.964 370.08 402.082 367.265C402.082 366.565 402.158 365.875 402.136 365.109C402.093 364.366 401.921 363.637 401.63 362.952C401.179 361.914 400.464 361.012 399.556 360.337C398.647 359.661 397.578 359.236 396.454 359.103C395.677 359.038 394.955 359.103 394.211 359.103H361.421H276.183H273.347C272.371 359.058 271.396 359.208 270.479 359.545C269.564 359.901 268.741 360.461 268.074 361.182C267.407 361.903 266.913 362.767 266.63 363.707C266.369 364.636 266.288 365.606 266.392 366.565L266.511 369.347C266.597 371.201 266.673 373.045 266.759 374.889C267.083 382.243 267.399 389.485 267.708 396.616C268.333 410.86 268.937 424.597 269.519 437.688C269.584 439.326 269.66 440.922 269.735 442.561C269.735 443.37 269.8 444.179 269.843 444.977C269.83 445.8 269.936 446.62 270.156 447.414C270.652 449.008 271.745 450.348 273.207 451.155C273.924 451.552 274.712 451.805 275.525 451.899C276.345 451.985 277.1 451.899 277.887 451.899H295.937H328.35L375.287 451.813L388.043 451.759H375.287L328.35 451.662H295.937H277.887C277.111 451.662 276.313 451.662 275.579 451.608C274.822 451.522 274.089 451.288 273.423 450.918C272.076 450.176 271.07 448.938 270.619 447.467C270.411 446.716 270.313 445.939 270.328 445.16C270.328 444.362 270.253 443.553 270.22 442.745C270.156 441.127 270.08 439.51 270.015 437.871C269.444 424.781 268.851 411.033 268.236 396.789C267.927 389.672 267.615 382.43 267.298 375.061C267.212 373.228 267.136 371.384 267.05 369.53L266.932 366.748C266.828 365.847 266.902 364.935 267.147 364.063C267.408 363.206 267.859 362.418 268.468 361.761C269.077 361.103 269.827 360.593 270.662 360.267C271.514 359.955 272.42 359.819 273.326 359.869H276.162H361.399H394.211C394.944 359.869 395.71 359.869 396.368 359.869C397.413 359.984 398.41 360.376 399.255 361.003C400.1 361.63 400.763 362.47 401.177 363.438C401.447 364.067 401.607 364.738 401.651 365.422C401.651 366.101 401.651 366.823 401.651 367.524C401.543 370.328 401.435 373.088 401.328 375.784C401.112 381.182 400.907 386.362 400.713 391.322C399.937 411.119 399.322 427.142 398.891 438.227C398.783 440.998 398.697 443.456 398.61 445.58C398.648 447.035 398.169 448.455 397.259 449.59C396.349 450.725 395.067 451.501 393.64 451.781C392.885 451.651 392.497 451.619 392.497 451.651Z" fill="#263238"/>
<path d="M340.632 406.903C340.63 408.161 340.255 409.39 339.554 410.434C338.854 411.479 337.86 412.293 336.697 412.773C335.534 413.253 334.255 413.377 333.022 413.13C331.789 412.884 330.656 412.277 329.768 411.387C328.879 410.497 328.274 409.363 328.029 408.129C327.785 406.895 327.911 405.617 328.393 404.455C328.875 403.293 329.691 402.3 330.737 401.602C331.782 400.903 333.012 400.53 334.27 400.53C335.106 400.53 335.934 400.695 336.707 401.016C337.479 401.336 338.181 401.805 338.772 402.397C339.363 402.989 339.831 403.692 340.15 404.465C340.47 405.238 340.633 406.066 340.632 406.903Z" fill="white"/>
<path d="M257.702 334.777C257.676 334.999 257.676 335.224 257.702 335.446V337.365C257.702 339.026 257.702 341.43 257.82 344.406C257.971 350.347 258.284 358.564 258.791 367.621C259.297 376.679 259.869 384.874 260.354 390.815C260.602 393.726 260.807 396.099 260.947 397.835C261.033 398.611 261.098 399.236 261.152 399.732C261.156 399.959 261.192 400.184 261.26 400.401C261.281 400.179 261.281 399.955 261.26 399.732C261.26 399.236 261.26 398.6 261.174 397.813C261.066 396.088 260.926 393.705 260.742 390.783C260.387 384.787 259.891 376.614 259.351 367.589C258.812 358.564 258.467 350.337 258.219 344.395C258.101 341.473 257.993 339.09 257.917 337.354L257.82 335.446C257.807 335.219 257.767 334.995 257.702 334.777Z" fill="#263238"/>
</svg>
