<svg width="80" height="80" viewBox="0 0 80 80" fill="none" xmlns="http://www.w3.org/2000/svg">
<g clip-path="url(#clip0_58_2)">
<path d="M79 40.0081C79 34.7757 72.4462 29.8171 62.3981 26.7421C64.7169 16.5028 63.6863 8.3565 59.1453 5.74839C58.0987 5.13661 56.8748 4.84682 55.5383 4.84682V8.437C56.279 8.437 56.8749 8.5819 57.374 8.85559C59.564 10.1113 60.5141 14.8929 59.7733 21.0429C59.5962 22.5562 59.3064 24.1501 58.9521 25.7761C55.796 25.0034 52.35 24.4077 48.7269 24.0213C46.553 21.0429 44.2986 18.3382 42.0281 15.9716C47.2776 11.0934 52.2051 8.4209 55.5544 8.4209V4.83072C51.1262 4.83072 45.3292 7.98622 39.4678 13.46C33.6064 8.01842 27.8094 4.89512 23.3812 4.89512V8.4853C26.7144 8.4853 31.658 11.1417 36.9075 15.9877C34.6531 18.3543 32.3987 21.0429 30.257 24.0213C26.6178 24.4077 23.1718 25.0034 20.0157 25.7922C19.6453 24.1823 19.3716 22.6206 19.1784 21.1234C18.4215 14.9734 19.3555 10.1918 21.5294 8.91998C22.0124 8.63019 22.6404 8.5014 23.3812 8.5014V4.91122C22.0285 4.91122 20.8047 5.20101 19.7419 5.81279C15.2171 8.4209 14.2026 16.5511 16.5375 26.7582C6.52161 29.8493 0 34.7918 0 40.0081C0 45.2404 6.55381 50.199 16.6019 53.274C14.2831 63.5133 15.3137 71.6596 19.8547 74.2677C20.9013 74.8795 22.1252 75.1693 23.4778 75.1693C27.906 75.1693 33.703 72.0138 39.5644 66.54C45.4258 71.9816 51.2228 75.1049 55.651 75.1049C57.0037 75.1049 58.2275 74.8151 59.2903 74.2033C63.8151 71.5952 64.8296 63.465 62.4947 53.2579C72.4784 50.1829 79 45.2243 79 40.0081ZM58.0342 29.2697C57.4384 31.3465 56.6977 33.4878 55.8604 35.629C55.2002 34.341 54.5077 33.0531 53.7509 31.7651C53.0102 30.4772 52.2212 29.2214 51.4321 27.9979C53.7187 28.3359 55.9248 28.7545 58.0342 29.2697ZM50.6592 46.4156C49.4032 48.5891 48.115 50.6498 46.7784 52.5656C44.3791 52.7749 41.9476 52.8876 39.5 52.8876C37.0685 52.8876 34.637 52.7749 32.2538 52.5817C30.9172 50.6659 29.6129 48.6213 28.3569 46.4639C27.1331 44.3549 26.022 42.2137 25.0075 40.0564C26.0059 37.899 27.1331 35.7417 28.3408 33.6327C29.5968 31.4592 30.885 29.3985 32.2216 27.4827C34.6209 27.2734 37.0524 27.1607 39.5 27.1607C41.9315 27.1607 44.363 27.2734 46.7462 27.4666C48.0828 29.3824 49.3871 31.427 50.6431 33.5844C51.8669 35.6934 52.978 37.8346 53.9925 39.992C52.978 42.1493 51.8669 44.3066 50.6592 46.4156ZM55.8604 44.3227C56.7299 46.48 57.4707 48.6374 58.0826 50.7303C55.9731 51.2455 53.7509 51.6802 51.4482 52.0183C52.2373 50.7786 53.0263 49.5067 53.767 48.2027C54.5078 46.9147 55.2002 45.6107 55.8604 44.3227ZM39.5322 61.5009C38.0347 59.9553 36.5371 58.2327 35.0556 56.349C36.5049 56.4134 37.9863 56.4617 39.4839 56.4617C40.9976 56.4617 42.4951 56.4295 43.9605 56.349C42.5112 58.2327 41.0137 59.9553 39.5322 61.5009ZM27.5518 52.0183C25.2652 51.6802 23.0591 51.2616 20.9497 50.7464C21.5455 48.6696 22.2862 46.5283 23.1235 44.3871C23.7837 45.6751 24.4762 46.963 25.233 48.251C25.9898 49.5389 26.7627 50.7947 27.5518 52.0183ZM39.4517 18.5153C40.9493 20.0608 42.4468 21.7835 43.9283 23.6671C42.479 23.6027 40.9976 23.5544 39.5 23.5544C37.9863 23.5544 36.4888 23.5866 35.0234 23.6671C36.4727 21.7835 37.9702 20.0608 39.4517 18.5153ZM27.5357 27.9979C26.7466 29.2375 25.9576 30.5094 25.2169 31.8134C24.4762 33.1014 23.7837 34.3893 23.1235 35.6773C22.254 33.52 21.5133 31.3626 20.9013 29.2697C23.0108 28.7706 25.233 28.3359 27.5357 27.9979ZM12.9627 48.1544C7.26233 45.7234 3.57481 42.5357 3.57481 40.0081C3.57481 37.4804 7.26233 34.2766 12.9627 31.8617C14.3475 31.266 15.8612 30.7348 17.4232 30.2357C18.341 33.3912 19.5487 36.6755 21.0463 40.0403C19.5648 43.3889 18.3732 46.6571 17.4715 49.7965C15.8773 49.2975 14.3636 48.7501 12.9627 48.1544ZM21.626 71.1605C19.436 69.9048 18.4859 65.1232 19.2267 58.9732C19.4038 57.4599 19.6936 55.866 20.0479 54.24C23.204 55.0128 26.65 55.6084 30.2731 55.9948C32.447 58.9732 34.7014 61.6779 36.9719 64.0446C31.7224 68.9227 26.7949 71.5952 23.4456 71.5952C22.721 71.5791 22.1091 71.4342 21.626 71.1605ZM59.8217 58.8927C60.5785 65.0427 59.6445 69.8243 57.4706 71.0961C56.9876 71.3859 56.3596 71.5147 55.6188 71.5147C52.2856 71.5147 47.342 68.8583 42.0925 64.0124C44.3469 61.6457 46.6013 58.9571 48.743 55.9787C52.3822 55.5923 55.8282 54.9967 58.9843 54.2078C59.3547 55.8338 59.6445 57.3955 59.8217 58.8927ZM66.0212 48.1544C64.6364 48.7501 63.1227 49.2814 61.5607 49.7804C60.6429 46.6249 59.4352 43.3406 57.9376 39.9759C59.4191 36.6272 60.6107 33.359 61.5124 30.2196C63.1066 30.7187 64.6203 31.266 66.0373 31.8617C71.7377 34.2927 75.4252 37.4804 75.4252 40.0081C75.4091 42.5357 71.7216 45.7395 66.0212 48.1544Z" fill="#61DAFB"/>
<path d="M39.4839 47.3655C43.5481 47.3655 46.8428 44.0715 46.8428 40.0081C46.8428 35.9447 43.5481 32.6506 39.4839 32.6506C35.4196 32.6506 32.1249 35.9447 32.1249 40.0081C32.1249 44.0715 35.4196 47.3655 39.4839 47.3655Z" fill="#61DAFB"/>
</g>
<defs>
<clipPath id="clip0_58_2">
<rect width="80" height="80" fill="white"/>
</clipPath>
</defs>
</svg>
