<svg version="1.1" id="Layer_1" xmlns="http://www.w3.org/2000/svg" xmlns:xlink="http://www.w3.org/1999/xlink" x="0px" y="0px"
	 width="100%" viewBox="0 0 225 225" enable-background="new 0 0 225 225" xml:space="preserve">
<path fill="#169FCA" opacity="1.000000" stroke="none" 
	d="
M226.000000,110.000000 
	C226.000000,112.041748 226.000000,114.083496 225.690247,116.753281 
	C222.617874,121.990143 220.504074,127.206223 216.914703,131.041260 
	C213.135941,135.078629 208.249130,138.375275 203.304092,140.956573 
	C195.519867,145.019928 187.281784,148.213806 179.154739,151.811707 
	C179.650070,154.390671 180.214264,156.982941 180.638931,159.597855 
	C182.674393,172.131607 183.488098,184.681946 179.822296,197.052200 
	C178.262299,202.316422 175.921860,207.294632 170.327271,210.172440 
	C169.713486,210.578461 169.365448,210.813644 169.018341,211.021118 
	C169.019272,210.993378 169.058929,211.032181 168.698669,211.043182 
	C166.897491,211.667374 165.456604,212.280579 163.687286,212.991272 
	C162.906219,213.061478 162.453552,213.034180 161.716522,212.822647 
	C159.953979,212.763519 158.475830,212.888641 156.621536,213.077271 
	C155.493408,213.037445 154.741394,212.934128 153.817169,212.535431 
	C150.042908,211.177719 146.440842,210.115356 142.600494,209.053314 
	C142.362213,209.053619 141.959351,208.799026 141.756546,208.679779 
	C141.279602,208.407654 141.011246,208.245224 140.401001,208.049927 
	C131.093369,202.049896 122.133385,196.073166 112.915916,189.924683 
	C110.628136,191.848801 107.773682,194.380920 104.782814,196.740097 
	C96.115692,203.576630 86.971870,209.563705 76.134041,212.471741 
	C61.581039,216.376633 50.545387,210.740326 47.302475,196.027451 
	C45.334488,187.098785 45.580227,177.585724 45.646156,168.341019 
	C45.686314,162.710052 47.275555,157.090134 48.157417,151.538010 
	C29.231348,144.298630 10.052546,138.226089 1.000000,118.000000 
	C1.000000,115.299042 1.000000,112.598076 1.312762,109.281540 
	C4.859196,103.960991 7.457250,98.607269 11.459160,94.686417 
	C19.732332,86.580818 30.122316,81.061340 41.173447,78.537590 
	C48.211273,76.930359 48.359890,74.199974 47.181236,68.735855 
	C46.951462,67.317352 46.552116,66.159019 46.060966,64.635040 
	C45.963337,63.518833 45.957516,62.768269 46.143116,61.716846 
	C45.934322,59.610950 45.534103,57.805916 45.050552,55.540955 
	C45.015297,50.383648 45.063377,45.686264 45.312603,40.744644 
	C45.669086,38.998234 45.824429,37.496063 45.942749,35.601700 
	C46.072323,34.449917 46.238922,33.690323 46.506577,32.746971 
	C46.734955,32.313587 46.846493,32.057095 46.916294,31.584991 
	C46.890339,31.376245 47.062298,30.992289 47.223522,30.713390 
	C47.556625,30.039486 47.728504,29.644482 47.907661,28.906397 
	C50.162365,22.093105 53.497810,16.527990 60.959389,15.430805 
	C67.749031,14.432423 74.668816,13.160653 81.262535,16.469540 
	C86.003654,18.848745 90.947968,20.950356 95.337097,23.873346 
	C101.653984,28.080162 107.548912,32.920593 113.137856,37.124935 
	C120.668472,31.710865 127.964966,26.216215 135.545578,21.146404 
	C138.300858,19.303717 142.062607,18.958378 144.800552,17.098663 
	C156.197021,9.357779 172.525040,13.097986 177.701187,25.664577 
	C180.232910,31.811077 181.672363,38.818924 181.764862,45.462551 
	C181.904633,55.500019 180.434250,65.559914 179.634552,75.783936 
	C184.537216,77.711975 189.889114,79.516388 194.982529,81.878227 
	C208.209000,88.011398 220.827621,94.933411 226.000000,110.000000 
M73.646240,69.944328 
	C74.092285,69.948608 74.538338,69.952896 75.500496,70.311134 
	C76.666740,69.924423 77.832993,69.537704 79.733055,68.972336 
	C80.485428,68.972443 81.237793,68.972557 82.558136,69.339905 
	C84.038460,68.920502 85.518784,68.501091 87.417587,67.716904 
	C87.688087,67.464828 87.958595,67.212746 88.504158,66.646698 
	C88.680588,66.430962 88.842896,66.205078 89.165947,65.315804 
	C94.667564,58.534740 100.169182,51.753677 105.820778,44.787754 
	C96.689056,36.666069 87.282440,29.110886 75.576508,25.121614 
	C64.411354,21.316637 57.663124,24.698093 56.239429,36.286911 
	C55.080818,45.717957 56.030987,55.408066 55.757130,65.545639 
	C56.374161,67.696762 56.991188,69.847885 58.023689,72.537514 
	C58.673950,72.668747 59.324215,72.799988 60.542248,73.228493 
	C62.694580,72.535797 64.846916,71.843102 67.651077,70.968964 
	C68.099869,70.976891 68.548660,70.984818 69.518066,71.337265 
	C70.678444,70.934639 71.838829,70.532013 73.646240,69.944328 
M167.734116,27.711288 
	C167.568390,27.516439 167.420456,27.308907 166.694458,26.602077 
	C163.235901,22.988548 158.846100,23.066790 154.595001,24.126913 
	C141.130493,27.484634 130.760925,35.861416 120.933289,44.844589 
	C126.363548,51.440098 131.300461,57.706783 136.562302,63.687592 
	C138.528931,65.922943 141.037033,67.951736 143.706451,69.205788 
	C145.541565,70.067894 148.141907,69.113335 150.291672,69.530350 
	C155.692047,70.577919 161.106781,71.691376 166.364761,73.278625 
	C169.344315,74.178070 169.732864,73.366829 169.884369,70.672173 
	C170.088043,67.050140 170.846710,63.459316 171.584549,59.674271 
	C171.766953,59.434303 171.774979,59.178265 171.570587,57.980362 
	C171.662674,52.008137 171.754776,46.035915 172.191879,39.612957 
	C171.848587,38.745346 171.505295,37.877735 170.950943,36.368061 
	C170.946228,35.919838 170.941513,35.471611 171.229950,34.501003 
	C170.512436,33.002903 169.794922,31.504803 168.688507,29.565182 
	C168.459305,29.038868 168.230118,28.512554 167.734116,27.711288 
M99.907616,77.147057 
	C94.826363,76.919060 91.283585,78.789192 88.786903,83.583755 
	C84.262344,92.272591 79.254028,100.716537 74.247795,109.143997 
	C72.322594,112.384857 72.487617,115.159561 74.364075,118.309883 
	C79.720856,127.303215 84.774109,136.478958 90.210533,145.422638 
	C93.519173,150.865799 97.002670,151.580765 103.283272,151.018051 
	C110.094002,150.407852 117.042686,150.453262 123.858391,151.047684 
	C129.885223,151.573303 133.719223,150.662964 136.957733,145.227753 
	C142.569122,135.810120 147.974213,126.261429 153.133316,116.590332 
	C154.014618,114.938271 153.998138,111.992943 153.105896,110.342926 
	C147.813858,100.556458 142.326492,90.860474 136.447250,81.418976 
	C135.214432,79.439224 132.122055,77.614685 129.794724,77.494293 
	C120.160004,76.995903 110.490028,77.178970 99.907616,77.147057 
M127.131653,187.398605 
	C128.974136,188.825836 130.739960,190.367844 132.673111,191.659363 
	C139.195541,196.016998 145.184906,201.093948 153.389389,202.659256 
	C162.706329,204.436752 166.667007,202.710007 170.116608,194.000504 
	C173.501953,185.453217 171.947006,176.693512 171.444290,168.018509 
	C171.172668,163.331131 169.909821,158.701187 169.090408,154.024002 
	C160.327225,155.581345 152.411407,156.938248 144.520432,158.426773 
	C142.635910,158.782272 140.176743,159.012329 139.103104,160.262772 
	C132.978226,167.396194 127.192513,174.820847 121.198135,182.262497 
	C123.082787,183.892960 124.840881,185.413940 127.131653,187.398605 
M80.304153,158.128876 
	C73.038017,156.847626 65.771881,155.566391 58.074787,154.209152 
	C55.302876,167.478149 53.058239,180.535110 56.978359,193.763412 
	C59.598560,202.605179 63.967178,205.127579 72.659546,202.919846 
	C85.993813,199.533157 96.126656,191.029297 106.063538,182.268326 
	C100.869537,175.991028 95.723724,170.308441 91.236649,164.146194 
	C88.579636,160.497269 85.717621,158.159256 80.304153,158.128876 
M166.923126,111.390274 
	C166.718948,112.329552 166.092133,113.426727 166.375061,114.184021 
	C169.708832,123.107300 173.178818,131.979675 176.611282,140.861191 
	C187.222519,138.741501 202.815903,130.797729 210.003601,123.857544 
	C217.689575,116.436256 217.760239,110.443428 209.950974,103.135262 
	C200.489670,94.281105 188.764328,89.735687 176.605652,85.769867 
	C173.376373,94.267723 170.261993,102.463181 166.923126,111.390274 
M59.179760,117.740242 
	C59.581795,115.713432 60.840359,113.379280 60.241901,111.711479 
	C57.177055,103.170273 53.633732,94.800751 49.899563,85.477097 
	C47.225430,86.546165 44.344524,87.704010 41.459053,88.850349 
	C31.988865,92.612679 22.822662,96.926788 15.662968,104.452217 
	C9.670014,110.751305 9.498796,116.058121 15.520339,122.299248 
	C25.129105,132.258438 37.537674,137.174576 50.411972,141.236008 
	C53.362965,133.337326 56.143135,125.895889 59.179760,117.740242 
M123.301727,67.902153 
	C123.643517,66.845894 124.611092,65.289864 124.229141,64.811607 
	C120.858681,60.591324 117.248421,56.562557 113.311821,52.018597 
	C108.908218,57.186703 104.981140,61.795555 101.054062,66.404411 
	C101.201721,66.924026 101.349380,67.443642 101.497047,67.963257 
	C108.500183,67.963257 115.503319,67.963257 123.301727,67.902153 
M110.604240,160.226227 
	C107.694145,160.226227 104.784050,160.226227 100.699127,160.226227 
	C105.362999,165.577286 109.307167,170.102600 113.633095,175.065918 
	C117.976280,169.970123 121.859451,165.414047 126.280853,160.226471 
	C120.533478,160.226471 116.049568,160.226471 110.604240,160.226227 
M71.757339,80.328972 
	C68.137527,81.213943 64.517715,82.098923 60.385109,83.109261 
	C62.547298,89.239754 64.506744,94.795387 66.802414,101.304337 
	C71.156761,93.361038 74.869385,86.588379 79.303009,78.500450 
	C75.813492,79.129837 74.087364,79.441177 71.757339,80.328972 
M155.892410,146.390518 
	C159.242538,145.662323 162.592651,144.934113 166.992401,143.977768 
	C164.707642,137.850204 162.657608,132.352158 160.270401,125.949844 
	C155.938614,133.505463 152.139038,140.132812 147.986511,147.375763 
	C150.823410,147.075684 152.947617,146.850983 155.892410,146.390518 
M164.166016,89.718811 
	C164.826050,87.565567 165.486099,85.412323 166.360260,82.560501 
	C159.969833,81.440727 154.219894,80.433182 147.641418,79.280449 
	C150.096420,83.438522 152.111435,86.817764 154.092712,90.216667 
	C156.024292,93.530334 157.921356,96.864113 160.258530,100.927971 
	C161.751678,96.726913 162.860886,93.606171 164.166016,89.718811 
M78.373474,145.995605 
	C74.621048,139.661560 70.868622,133.327530 66.598572,126.119759 
	C64.434410,132.516098 62.571449,138.022217 60.535686,144.039062 
	C65.091278,145.052353 69.047234,146.080215 73.062225,146.758850 
	C74.892357,147.068176 76.839066,146.687866 78.373474,145.995605 
z"/>
<path fill="#FEFFFF" opacity="1.000000" stroke="none" 
	d="
M47.011662,68.996017 
	C48.359890,74.199974 48.211273,76.930359 41.173447,78.537590 
	C30.122316,81.061340 19.732332,86.580818 11.459160,94.686417 
	C7.457250,98.607269 4.859196,103.960991 1.312762,108.832977 
	C1.000000,73.035660 1.000000,37.071316 1.000000,1.053488 
	C75.890022,1.053488 150.780090,1.053488 226.000000,1.053488 
	C226.000000,37.020222 226.000000,73.041451 226.000000,109.531342 
	C220.827621,94.933411 208.209000,88.011398 194.982529,81.878227 
	C189.889114,79.516388 184.537216,77.711975 179.634552,75.783936 
	C180.434250,65.559914 181.904633,55.500019 181.764862,45.462551 
	C181.672363,38.818924 180.232910,31.811077 177.701187,25.664577 
	C172.525040,13.097986 156.197021,9.357779 144.800552,17.098663 
	C142.062607,18.958378 138.300858,19.303717 135.545578,21.146404 
	C127.964966,26.216215 120.668472,31.710865 113.137856,37.124935 
	C107.548912,32.920593 101.653984,28.080162 95.337097,23.873346 
	C90.947968,20.950356 86.003654,18.848745 81.262535,16.469540 
	C74.668816,13.160653 67.749031,14.432423 60.959389,15.430805 
	C53.497810,16.527990 50.162365,22.093105 47.619572,29.107479 
	C47.236900,30.098524 47.149601,30.545406 47.062298,30.992289 
	C47.062298,30.992289 46.890339,31.376245 46.767609,31.743309 
	C46.468765,32.355724 46.388977,32.629173 46.405518,32.930725 
	C46.238922,33.690323 46.072323,34.449917 45.794296,35.935200 
	C45.492397,38.103550 45.301929,39.546219 45.111458,40.988884 
	C45.063377,45.686264 45.015297,50.383648 44.999962,55.926102 
	C45.339035,58.520023 45.645363,60.268864 45.951691,62.017708 
	C45.957516,62.768269 45.963337,63.518833 46.035728,64.978867 
	C46.405418,66.790901 46.708538,67.893463 47.011662,68.996017 
z"/>
<path fill="#FEFFFF" opacity="1.000000" stroke="none" 
	d="
M1.000000,118.468658 
	C10.052546,138.226089 29.231348,144.298630 48.157417,151.538010 
	C47.275555,157.090134 45.686314,162.710052 45.646156,168.341019 
	C45.580227,177.585724 45.334488,187.098785 47.302475,196.027451 
	C50.545387,210.740326 61.581039,216.376633 76.134041,212.471741 
	C86.971870,209.563705 96.115692,203.576630 104.782814,196.740097 
	C107.773682,194.380920 110.628136,191.848801 112.915916,189.924683 
	C122.133385,196.073166 131.093369,202.049896 140.549637,208.251251 
	C141.350403,208.583588 141.654877,208.691315 141.959351,208.799026 
	C141.959351,208.799026 142.362213,209.053619 142.863098,209.301025 
	C146.905792,210.642563 150.447601,211.736679 153.989395,212.830795 
	C154.741394,212.934128 155.493408,213.037445 156.920593,213.184753 
	C159.064148,213.154785 160.532516,213.080826 162.000900,213.006897 
	C162.453552,213.034180 162.906219,213.061478 164.034058,213.012085 
	C166.159149,212.300980 167.609039,211.666580 169.058929,211.032181 
	C169.058929,211.032181 169.019272,210.993378 169.347031,210.962982 
	C169.980865,210.622253 170.286957,210.311935 170.593048,210.001617 
	C175.921860,207.294632 178.262299,202.316422 179.822296,197.052200 
	C183.488098,184.681946 182.674393,172.131607 180.638931,159.597855 
	C180.214264,156.982941 179.650070,154.390671 179.154739,151.811707 
	C187.281784,148.213806 195.519867,145.019928 203.304092,140.956573 
	C208.249130,138.375275 213.135941,135.078629 216.914703,131.041260 
	C220.504074,127.206223 222.617874,121.990143 225.690247,117.190659 
	C226.000000,153.297333 226.000000,189.594681 226.000000,225.946014 
	C151.110336,225.946014 76.220612,225.946014 1.000000,225.946014 
	C1.000000,190.313126 1.000000,154.625214 1.000000,118.468658 
z"/>
<path fill="#FCFDFE" opacity="1.000000" stroke="none" 
	d="
M100.370316,77.129410 
	C110.490028,77.178970 120.160004,76.995903 129.794724,77.494293 
	C132.122055,77.614685 135.214432,79.439224 136.447250,81.418976 
	C142.326492,90.860474 147.813858,100.556458 153.105896,110.342926 
	C153.998138,111.992943 154.014618,114.938271 153.133316,116.590332 
	C147.974213,126.261429 142.569122,135.810120 136.957733,145.227753 
	C133.719223,150.662964 129.885223,151.573303 123.858391,151.047684 
	C117.042686,150.453262 110.094002,150.407852 103.283272,151.018051 
	C97.002670,151.580765 93.519173,150.865799 90.210533,145.422638 
	C84.774109,136.478958 79.720856,127.303215 74.364075,118.309883 
	C72.487617,115.159561 72.322594,112.384857 74.247795,109.143997 
	C79.254028,100.716537 84.262344,92.272591 88.786903,83.583755 
	C91.283585,78.789192 94.826363,76.919060 100.370316,77.129410 
M97.451279,100.031715 
	C96.788002,100.986359 96.059090,101.902405 95.471588,102.901596 
	C89.501579,113.055077 93.038910,126.030846 103.331245,131.808304 
	C113.456039,137.491699 126.640961,133.497314 132.028290,123.114510 
	C136.563660,114.373665 134.040329,102.931038 126.279259,97.044113 
	C118.073105,90.819580 106.151863,91.847580 97.451279,100.031715 
z"/>
<path fill="#FCFEFE" opacity="1.000000" stroke="none" 
	d="
M171.367142,59.855095 
	C170.846710,63.459316 170.088043,67.050140 169.884369,70.672173 
	C169.732864,73.366829 169.344315,74.178070 166.364761,73.278625 
	C161.106781,71.691376 155.692047,70.577919 150.291672,69.530350 
	C148.141907,69.113335 145.541565,70.067894 143.706451,69.205788 
	C141.037033,67.951736 138.528931,65.922943 136.562302,63.687592 
	C131.300461,57.706783 126.363548,51.440098 120.933289,44.844589 
	C130.760925,35.861416 141.130493,27.484634 154.595001,24.126913 
	C158.846100,23.066790 163.235901,22.988548 167.041382,27.039845 
	C167.544861,27.704525 167.749069,27.874067 168.000916,27.986240 
	C168.230118,28.512554 168.459305,29.038868 168.910980,30.125542 
	C169.734558,32.131729 170.335678,33.577557 170.936798,35.023384 
	C170.941513,35.471611 170.946228,35.919838 171.028610,37.008102 
	C171.353149,38.453327 171.600006,39.258511 171.846878,40.063690 
	C171.754776,46.035915 171.662674,52.008137 171.454834,58.661541 
	C171.348450,59.513512 171.357788,59.684303 171.367142,59.855095 
z"/>
<path fill="#FCFEFE" opacity="1.000000" stroke="none" 
	d="
M126.865311,187.166763 
	C124.840881,185.413940 123.082787,183.892960 121.198135,182.262497 
	C127.192513,174.820847 132.978226,167.396194 139.103104,160.262772 
	C140.176743,159.012329 142.635910,158.782272 144.520432,158.426773 
	C152.411407,156.938248 160.327225,155.581345 169.090408,154.024002 
	C169.909821,158.701187 171.172668,163.331131 171.444290,168.018509 
	C171.947006,176.693512 173.501953,185.453217 170.116608,194.000504 
	C166.667007,202.710007 162.706329,204.436752 153.389389,202.659256 
	C145.184906,201.093948 139.195541,196.016998 132.673111,191.659363 
	C130.739960,190.367844 128.974136,188.825836 126.865311,187.166763 
z"/>
<path fill="#FCFEFE" opacity="1.000000" stroke="none" 
	d="
M80.728195,158.171509 
	C85.717621,158.159256 88.579636,160.497269 91.236649,164.146194 
	C95.723724,170.308441 100.869537,175.991028 106.063538,182.268326 
	C96.126656,191.029297 85.993813,199.533157 72.659546,202.919846 
	C63.967178,205.127579 59.598560,202.605179 56.978359,193.763412 
	C53.058239,180.535110 55.302876,167.478149 58.074787,154.209152 
	C65.771881,155.566391 73.038017,156.847626 80.728195,158.171509 
z"/>
<path fill="#FDFEFE" opacity="1.000000" stroke="none" 
	d="
M167.035370,111.024460 
	C170.261993,102.463181 173.376373,94.267723 176.605652,85.769867 
	C188.764328,89.735687 200.489670,94.281105 209.950974,103.135262 
	C217.760239,110.443428 217.689575,116.436256 210.003601,123.857544 
	C202.815903,130.797729 187.222519,138.741501 176.611282,140.861191 
	C173.178818,131.979675 169.708832,123.107300 166.375061,114.184021 
	C166.092133,113.426727 166.718948,112.329552 167.035370,111.024460 
z"/>
<path fill="#FDFEFE" opacity="1.000000" stroke="none" 
	d="
M59.051529,118.097343 
	C56.143135,125.895889 53.362965,133.337326 50.411972,141.236008 
	C37.537674,137.174576 25.129105,132.258438 15.520339,122.299248 
	C9.498796,116.058121 9.670014,110.751305 15.662968,104.452217 
	C22.822662,96.926788 31.988865,92.612679 41.459053,88.850349 
	C44.344524,87.704010 47.225430,86.546165 49.899563,85.477097 
	C53.633732,94.800751 57.177055,103.170273 60.241901,111.711479 
	C60.840359,113.379280 59.581795,115.713432 59.051529,118.097343 
z"/>
<path fill="#FDFEFE" opacity="1.000000" stroke="none" 
	d="
M56.046028,64.983292 
	C56.030987,55.408066 55.080818,45.717957 56.239429,36.286911 
	C57.663124,24.698093 64.411354,21.316637 75.576508,25.121614 
	C87.282440,29.110886 96.689056,36.666069 105.820778,44.787754 
	C100.169182,51.753677 94.667564,58.534740 88.891869,65.759140 
	C88.356628,66.387741 88.227066,66.640472 88.229095,66.960670 
	C87.958595,67.212746 87.688087,67.464828 86.840836,67.897705 
	C84.839447,68.376556 83.414810,68.674614 81.990166,68.972664 
	C81.237793,68.972557 80.485428,68.972443 79.021164,69.030167 
	C77.200981,69.377724 76.092682,69.667450 74.984383,69.957176 
	C74.538338,69.952896 74.092285,69.948608 72.977615,70.001549 
	C71.205154,70.370094 70.101303,70.681419 68.997452,70.992752 
	C68.548660,70.984818 68.099869,70.976891 66.953606,71.048508 
	C64.162247,71.729111 62.068363,72.330170 59.974476,72.931229 
	C59.324215,72.799988 58.673950,72.668747 57.789711,71.905716 
	C57.052498,69.177040 56.549263,67.080170 56.046028,64.983292 
z"/>
<path fill="#F2F9FC" opacity="1.000000" stroke="none" 
	d="
M122.904091,67.932709 
	C115.503319,67.963257 108.500183,67.963257 101.497047,67.963257 
	C101.349380,67.443642 101.201721,66.924026 101.054062,66.404411 
	C104.981140,61.795555 108.908218,57.186703 113.311821,52.018597 
	C117.248421,56.562557 120.858681,60.591324 124.229141,64.811607 
	C124.611092,65.289864 123.643517,66.845894 122.904091,67.932709 
z"/>
<path fill="#F2F9FC" opacity="1.000000" stroke="none" 
	d="
M111.084946,160.226349 
	C116.049568,160.226471 120.533478,160.226471 126.280853,160.226471 
	C121.859451,165.414047 117.976280,169.970123 113.633095,175.065918 
	C109.307167,170.102600 105.362999,165.577286 100.699127,160.226227 
	C104.784050,160.226227 107.694145,160.226227 111.084946,160.226349 
z"/>
<path fill="#F7FBFD" opacity="1.000000" stroke="none" 
	d="
M72.059288,80.040741 
	C74.087364,79.441177 75.813492,79.129837 79.303009,78.500450 
	C74.869385,86.588379 71.156761,93.361038 66.802414,101.304337 
	C64.506744,94.795387 62.547298,89.239754 60.385109,83.109261 
	C64.517715,82.098923 68.137527,81.213943 72.059288,80.040741 
z"/>
<path fill="#F7FBFD" opacity="1.000000" stroke="none" 
	d="
M155.482117,146.508392 
	C152.947617,146.850983 150.823410,147.075684 147.986511,147.375763 
	C152.139038,140.132812 155.938614,133.505463 160.270401,125.949844 
	C162.657608,132.352158 164.707642,137.850204 166.992401,143.977768 
	C162.592651,144.934113 159.242538,145.662323 155.482117,146.508392 
z"/>
<path fill="#F6FBFD" opacity="1.000000" stroke="none" 
	d="
M164.068054,90.102112 
	C162.860886,93.606171 161.751678,96.726913 160.258530,100.927971 
	C157.921356,96.864113 156.024292,93.530334 154.092712,90.216667 
	C152.111435,86.817764 150.096420,83.438522 147.641418,79.280449 
	C154.219894,80.433182 159.969833,81.440727 166.360260,82.560501 
	C165.486099,85.412323 164.826050,87.565567 164.068054,90.102112 
z"/>
<path fill="#F6FBFD" opacity="1.000000" stroke="none" 
	d="
M78.553185,146.307983 
	C76.839066,146.687866 74.892357,147.068176 73.062225,146.758850 
	C69.047234,146.080215 65.091278,145.052353 60.535686,144.039062 
	C62.571449,138.022217 64.434410,132.516098 66.598572,126.119759 
	C70.868622,133.327530 74.621048,139.661560 78.553185,146.307983 
z"/>
<path fill="#089BC9" opacity="1.000000" stroke="none" 
	d="
M153.817169,212.535431 
	C150.447601,211.736679 146.905792,210.642563 143.101379,209.300720 
	C146.440842,210.115356 150.042908,211.177719 153.817169,212.535431 
z"/>
<path fill="#159ECA" opacity="1.000000" stroke="none" 
	d="
M60.258362,73.079865 
	C62.068363,72.330170 64.162247,71.729111 66.627693,71.139236 
	C64.846916,71.843102 62.694580,72.535797 60.258362,73.079865 
z"/>
<path fill="#159ECA" opacity="1.000000" stroke="none" 
	d="
M46.143116,61.716846 
	C45.645363,60.268864 45.339035,58.520023 45.083298,56.386032 
	C45.534103,57.805916 45.934322,59.610950 46.143116,61.716846 
z"/>
<path fill="#159ECA" opacity="1.000000" stroke="none" 
	d="
M55.901581,65.264465 
	C56.549263,67.080170 57.052498,69.177040 57.581978,71.636459 
	C56.991188,69.847885 56.374161,67.696762 55.901581,65.264465 
z"/>
<path fill="#089BC9" opacity="1.000000" stroke="none" 
	d="
M161.716522,212.822632 
	C160.532516,213.080826 159.064148,213.154785 157.296722,213.121246 
	C158.475830,212.888641 159.953979,212.763519 161.716522,212.822632 
z"/>
<path fill="#159ECA" opacity="1.000000" stroke="none" 
	d="
M82.274155,69.156281 
	C83.414810,68.674614 84.839447,68.376556 86.631599,68.080093 
	C85.518784,68.501091 84.038460,68.920502 82.274155,69.156281 
z"/>
<path fill="#089BC9" opacity="1.000000" stroke="none" 
	d="
M171.083374,34.762192 
	C170.335678,33.577557 169.734558,32.131729 169.105438,30.346302 
	C169.794922,31.504803 170.512436,33.002903 171.083374,34.762192 
z"/>
<path fill="#159ECA" opacity="1.000000" stroke="none" 
	d="
M45.312607,40.744644 
	C45.301929,39.546219 45.492397,38.103550 45.831314,36.327385 
	C45.824429,37.496063 45.669086,38.998234 45.312607,40.744644 
z"/>
<path fill="#159ECA" opacity="1.000000" stroke="none" 
	d="
M69.257759,71.165009 
	C70.101303,70.681419 71.205154,70.370094 72.654099,70.094070 
	C71.838829,70.532013 70.678444,70.934639 69.257759,71.165009 
z"/>
<path fill="#159ECA" opacity="1.000000" stroke="none" 
	d="
M47.181236,68.735855 
	C46.708538,67.893463 46.405418,66.790901 46.127533,65.344513 
	C46.552116,66.159019 46.951462,67.317352 47.181236,68.735855 
z"/>
<path fill="#159ECA" opacity="1.000000" stroke="none" 
	d="
M75.242439,70.134155 
	C76.092682,69.667450 77.200981,69.377724 78.654259,69.119492 
	C77.832993,69.537704 76.666740,69.924423 75.242439,70.134155 
z"/>
<path fill="#089BC9" opacity="1.000000" stroke="none" 
	d="
M168.698669,211.043182 
	C167.609039,211.666580 166.159149,212.300980 164.362473,212.914581 
	C165.456604,212.280579 166.897491,211.667374 168.698669,211.043182 
z"/>
<path fill="#089BC9" opacity="1.000000" stroke="none" 
	d="
M172.019379,39.838326 
	C171.600006,39.258511 171.353149,38.453327 171.134125,37.329136 
	C171.505295,37.877735 171.848587,38.745346 172.019379,39.838326 
z"/>
<path fill="#089BC9" opacity="1.000000" stroke="none" 
	d="
M171.475845,59.764683 
	C171.357788,59.684303 171.348450,59.513512 171.473846,59.124435 
	C171.774979,59.178265 171.766953,59.434303 171.475845,59.764683 
z"/>
<path fill="#159ECA" opacity="1.000000" stroke="none" 
	d="
M46.506577,32.746971 
	C46.388977,32.629173 46.468765,32.355724 46.793564,31.952053 
	C46.846493,32.057095 46.734955,32.313587 46.506577,32.746971 
z"/>
<path fill="#159ECA" opacity="1.000000" stroke="none" 
	d="
M88.366623,66.803680 
	C88.227066,66.640472 88.356628,66.387741 88.804428,66.085762 
	C88.842896,66.205078 88.680588,66.430962 88.366623,66.803680 
z"/>
<path fill="#159ECA" opacity="1.000000" stroke="none" 
	d="
M47.223522,30.713390 
	C47.149601,30.545406 47.236900,30.098524 47.612289,29.450560 
	C47.728504,29.644482 47.556625,30.039486 47.223522,30.713390 
z"/>
<path fill="#089BC9" opacity="1.000000" stroke="none" 
	d="
M141.756546,208.679779 
	C141.654877,208.691315 141.350403,208.583588 140.897308,208.274567 
	C141.011246,208.245224 141.279602,208.407654 141.756546,208.679779 
z"/>
<path fill="#089BC9" opacity="1.000000" stroke="none" 
	d="
M167.867523,27.848764 
	C167.749069,27.874067 167.544861,27.704525 167.339325,27.283150 
	C167.420456,27.308907 167.568390,27.516439 167.867523,27.848764 
z"/>
<path fill="#089BC9" opacity="1.000000" stroke="none" 
	d="
M170.327286,210.172455 
	C170.286957,210.311935 169.980865,210.622253 169.346100,210.990707 
	C169.365448,210.813644 169.713486,210.578461 170.327286,210.172455 
z"/>
<path fill="#159ECA" opacity="1.000000" stroke="none" 
	d="
M97.695724,99.759789 
	C106.151863,91.847580 118.073105,90.819580 126.279259,97.044113 
	C134.040329,102.931038 136.563660,114.373665 132.028290,123.114510 
	C126.640961,133.497314 113.456039,137.491699 103.331245,131.808304 
	C93.038910,126.030846 89.501579,113.055077 95.471588,102.901596 
	C96.059090,101.902405 96.788002,100.986359 97.695724,99.759789 
z"/>
</svg>